<svg xmlns="http://www.w3.org/2000/svg" width="80" height="80" viewBox="0 0 80 80" id="B1VYeCqWQ"><style>@-webkit-keyframes ryIVKeCcbm_Animation{0%{opacity: 1;}100%{opacity: 1;}}@keyframes ryIVKeCcbm_Animation{0%{opacity: 1;}100%{opacity: 1;}}@-webkit-keyframes rJrEFlR9WQ_Animation{0%{opacity: 1;}8.33%{opacity: 0.5;}16.67%{opacity: 0;}66.67%{opacity: 0;}83.33%{opacity: 1;}100%{opacity: 1;}}@keyframes rJrEFlR9WQ_Animation{0%{opacity: 1;}8.33%{opacity: 0.5;}16.67%{opacity: 0;}66.67%{opacity: 0;}83.33%{opacity: 1;}100%{opacity: 1;}}@-webkit-keyframes rJENKe05-Q_Animation{0%{opacity: 0.5;}8.33%{opacity: 1;}16.67%{opacity: 1;}25%{opacity: 1;}41.67%{opacity: 0;}91.67%{opacity: 0;}100%{opacity: 0.5;}}@keyframes rJENKe05-Q_Animation{0%{opacity: 0.5;}8.33%{opacity: 1;}16.67%{opacity: 1;}25%{opacity: 1;}41.67%{opacity: 0;}91.67%{opacity: 0;}100%{opacity: 0.5;}}@-webkit-keyframes SJmEFxRq-7_Animation{0%{opacity: 0;}16.67%{opacity: 0;}33.33%{opacity: 1;}50%{opacity: 1;}66.67%{opacity: 0;}100%{opacity: 0;}}@keyframes SJmEFxRq-7_Animation{0%{opacity: 0;}16.67%{opacity: 0;}33.33%{opacity: 1;}50%{opacity: 1;}66.67%{opacity: 0;}100%{opacity: 0;}}@-webkit-keyframes S1fVtxCqbQ_Animation{0%{opacity: 0;}41.67%{opacity: 0;}58.33%{opacity: 1;}75%{opacity: 1;}91.67%{opacity: 0;}100%{opacity: 0;}}@keyframes S1fVtxCqbQ_Animation{0%{opacity: 0;}41.67%{opacity: 0;}58.33%{opacity: 1;}75%{opacity: 1;}91.67%{opacity: 0;}100%{opacity: 0;}}@-webkit-keyframes Syg4FeC9-7_r1aRVRcbX_Animation{0%{-webkit-transform: scale(1, 1);transform: scale(1, 1);}100%{-webkit-transform: scale(1, 1);transform: scale(1, 1);}}@keyframes Syg4FeC9-7_r1aRVRcbX_Animation{0%{-webkit-transform: scale(1, 1);transform: scale(1, 1);}100%{-webkit-transform: scale(1, 1);transform: scale(1, 1);}}#B1VYeCqWQ *{-webkit-animation-duration: 1.2s;animation-duration: 1.2s;-webkit-animation-iteration-count: infinite;animation-iteration-count: infinite;-webkit-animation-timing-function: cubic-bezier(0, 0, 1, 1);animation-timing-function: cubic-bezier(0, 0, 1, 1);}#Syg4FeC9-7{fill: none;}#SyZEKlCqZQ{fill: #000;}#S1fVtxCqbQ{fill: #F0CD25;-webkit-animation-name: S1fVtxCqbQ_Animation;animation-name: S1fVtxCqbQ_Animation;-webkit-animation-timing-function: cubic-bezier(0.42, 0, 0.58, 1);animation-timing-function: cubic-bezier(0.42, 0, 0.58, 1);-webkit-transform-origin: 50% 50%;transform-origin: 50% 50%;transform-box: fill-box;}#SJmEFxRq-7{fill: #EDA02F;-webkit-animation-name: SJmEFxRq-7_Animation;animation-name: SJmEFxRq-7_Animation;-webkit-animation-timing-function: cubic-bezier(0.42, 0, 0.58, 1);animation-timing-function: cubic-bezier(0.42, 0, 0.58, 1);-webkit-transform-origin: 50% 50%;transform-origin: 50% 50%;transform-box: fill-box;}#rJENKe05-Q{fill: #E5712A;-webkit-animation-name: rJENKe05-Q_Animation;animation-name: rJENKe05-Q_Animation;-webkit-animation-timing-function: cubic-bezier(0.42, 0, 0.58, 1);animation-timing-function: cubic-bezier(0.42, 0, 0.58, 1);-webkit-transform-origin: 50% 50%;transform-origin: 50% 50%;transform-box: fill-box;}#rJrEFlR9WQ{fill: #BB242B;-webkit-animation-name: rJrEFlR9WQ_Animation;animation-name: rJrEFlR9WQ_Animation;-webkit-animation-timing-function: cubic-bezier(0.42, 0, 0.58, 1);animation-timing-function: cubic-bezier(0.42, 0, 0.58, 1);-webkit-transform-origin: 50% 50%;transform-origin: 50% 50%;transform-box: fill-box;}#ryIVKeCcbm{fill: #BB242B;-webkit-animation-name: ryIVKeCcbm_Animation;animation-name: ryIVKeCcbm_Animation;-webkit-animation-timing-function: cubic-bezier(0.42, 0, 0.58, 1);animation-timing-function: cubic-bezier(0.42, 0, 0.58, 1);-webkit-transform-origin: 50% 50%;transform-origin: 50% 50%;transform-box: fill-box;}#Syg4FeC9-7_r1aRVRcbX{-webkit-animation-name: Syg4FeC9-7_r1aRVRcbX_Animation;animation-name: Syg4FeC9-7_r1aRVRcbX_Animation;-webkit-animation-timing-function: cubic-bezier(0.42, 0, 0.58, 1);animation-timing-function: cubic-bezier(0.42, 0, 0.58, 1);-webkit-transform-origin: 50% 50%;transform-origin: 50% 50%;transform-box: fill-box;}</style>
  <g id="Syg4FeC9-7_r1aRVRcbX" data-animator-group="true" data-animator-type="2"><g id="Syg4FeC9-7" fill-rule="evenodd">
    <path id="SyZEKlCqZQ" d="M67.7098868,59.6645283 C67.2404528,60.6041509 66.7702642,60.8388679 66.7702642,60.8388679 C66.7702642,60.8388679 66.3008302,60.8388679 66.0653585,60.3686792 L59.0193208,53.3218868 C61.368,49.5633962 62.7770566,45.1007547 62.7770566,40.4026415 C62.7770566,35.4698113 61.368,31.0064151 58.7838491,27.2479245 L66.0653585,19.9664151 C66.3008302,19.7316981 66.7702642,19.4962264 66.7702642,19.4962264 C66.7702642,19.4962264 67.2404528,19.7316981 67.7098868,20.6713208 C69.1189434,23.9596226 74.0517736,37.5837736 74.2872453,37.5837736 C74.522717,38.2879245 74.522717,41.5769811 74.2872453,42.5166038 C74.0517736,43.2215094 69.1189434,56.3754717 67.7098868,59.6645283 Z M42.1053585,74.9332075 C41.6359245,74.9332075 40.9317736,75.1679245 39.5219623,75.1679245 C38.1121509,75.1679245 37.173283,74.9332075 36.9378113,74.9332075 C36.2336604,74.6984906 23.0789434,69.7649057 19.7906415,68.3558491 C19.0857358,67.8856604 18.8502642,67.4162264 18.8502642,67.4162264 C18.8502642,67.4162264 18.8502642,66.9460377 19.3204528,66.7113208 L26.1325283,59.8992453 C29.8910189,62.4833962 34.3544151,63.8924528 39.2872453,63.8924528 C44.2200755,63.8924528 48.9181887,62.2486792 52.9113962,59.6645283 L59.9589434,66.7113208 C60.1929057,66.9460377 60.4283774,67.4162264 60.4283774,67.4162264 C60.4283774,67.4162264 60.1929057,67.8856604 59.253283,68.3558491 C55.9649811,69.9996226 42.3408302,74.9332075 42.1053585,74.9332075 Z M12.978566,60.3686792 C12.7861132,60.5611321 12.4495094,60.7460377 12.3295094,60.809434 C12.333283,60.7279245 11.9544151,60.4350943 11.5687547,59.6645283 C9.92422642,56.3754717 4.99139623,42.7520755 4.99139623,42.5166038 C4.75667925,41.8116981 4.75667925,38.5233962 4.99139623,37.5837736 C5.22686792,36.8788679 10.1589434,23.7249057 11.5687547,20.4358491 C12.0389434,19.4962264 12.5083774,19.2615094 12.5083774,19.2615094 C12.5083774,19.2615094 12.978566,19.2615094 13.213283,19.7316981 L20.0253585,26.5430189 C17.2064906,30.3015094 15.5619623,35.0003774 15.5619623,40.1679245 C15.5619623,45.1007547 17.2064906,49.7981132 19.7906415,53.5573585 L12.978566,60.3686792 Z M25.1181887,45.3724528 L25.1181887,35.2720755 L34.0442264,35.2720755 L34.0442264,26.3460377 L44.1453585,26.3460377 L44.1453585,35.2720755 L53.0713962,35.2720755 L53.0713962,45.3724528 L44.1453585,45.3724528 L44.1453585,54.2992453 L34.0442264,54.2992453 L34.0442264,45.3724528 L25.1181887,45.3724528 Z M37.173283,4.69773585 C37.408,4.69773585 38.1121509,4.46301887 39.5219623,4.46301887 C40.9317736,4.46301887 41.8713962,4.69773585 42.1053585,4.69773585 C42.8102642,4.93245283 55.9649811,9.86528302 59.253283,11.2743396 C60.1929057,11.7445283 60.4283774,11.98 60.4283774,12.214717 C60.4283774,12.214717 60.4283774,12.6841509 59.9589434,12.9188679 L52.2064906,20.6713208 C48.4487547,18.0871698 43.9853585,16.6773585 39.2872453,16.6773585 C34.5891321,16.6773585 30.3604528,18.0871698 26.837434,20.2011321 L19.5551698,12.6841509 C19.3204528,12.449434 19.0857358,11.98 19.0857358,11.98 C19.0857358,11.98 19.3204528,11.5098113 20.2600755,11.0396226 C23.5483774,9.86528302 37.173283,4.93245283 37.173283,4.69773585 Z M75.2268679,26.0735849 C73.3483774,21.545283 70.7634717,17.1475472 70.7634717,17.1475472 C69.3544151,15.0328302 67.4751698,14.7981132 66.5355472,14.7981132 C65.5959245,14.7981132 64.8910189,15.0328302 63.9521509,15.5030189 C64.1861132,15.0328302 64.6744151,12.3203774 64.4095094,11.2622642 C64.1498868,10.2245283 63.9378113,8.38528302 61.368,7.28113208 L51.5023396,3.28792453 C47.5091321,1.87886792 43.9853585,0.469811321 43.7498868,0.469811321 C42.3408302,-0.000377358491 40.4615849,-0.000377358491 39.5219623,-0.000377358491 C38.3476226,-0.000377358491 36.7030943,-0.000377358491 35.5287547,0.469811321 C34.8238491,0.704528302 21.4344151,5.63735849 17.9113962,7.28113208 C15.3272453,8.45622642 14.6223396,10.1 14.3876226,11.5098113 C13.9181887,12.9188679 14.3876226,14.3286792 15.3272453,15.5030189 C14.3876226,15.0328302 13.448,14.7981132 12.5083774,14.7981132 C11.3340377,14.7981132 8.98535849,15.2683019 7.34083019,18.5566038 C5.69630189,22.0803774 0.763471698,35.4698113 0.528754717,36.174717 C-0.176150943,37.8184906 -0.176150943,42.2811321 0.528754717,44.1611321 C0.763471698,44.865283 5.69630189,58.2554717 7.34083019,61.7784906 C8.98535849,65.0667925 11.3340377,65.5369811 12.5083774,65.5369811 C13.213283,65.5369811 13.9181887,65.3015094 14.6223396,65.0667925 C14.1529057,66.0064151 13.9181887,67.1815094 14.1529057,68.1211321 C14.3876226,69.294717 15.3272453,71.174717 17.9113962,72.3490566 C21.4344151,73.9935849 34.8238491,78.9264151 35.5287547,79.1611321 C36.7030943,79.6313208 38.8170566,79.6313208 39.5219623,79.6313208 C40.6963019,79.6313208 42.3408302,79.6313208 43.5159245,79.1611321 C43.7498868,79.1611321 45.8646038,78.2215094 48.4487547,77.2818868 L59.0193208,73.2879245 C59.9589434,72.8184906 60.6630943,72.5837736 61.1325283,72.3490566 C63.7166792,71.174717 64.6563019,69.294717 64.8910189,68.1211321 L64.8910189,67.4162264 L64.8910189,66.2418868 C64.8910189,65.7716981 64.6563019,65.0667925 64.4215849,64.5973585 C65.1257358,65.0667925 66.0653585,65.3015094 66.7702642,65.3015094 C67.7098868,65.3015094 69.5891321,65.0667925 70.9989434,62.9528302 L71.7030943,61.7784906 C71.7030943,61.7784906 74.522717,55.2018868 74.9921509,54.0267925 C74.9921509,54.0267925 78.0449811,46.0403774 78.2804528,45.3354717 L78.7498868,43.9256604 C78.9853585,43.2215094 79.2200755,41.8116981 79.2200755,40.6373585 L79.2200755,39.4630189 C79.2200755,38.2879245 78.9853585,36.8788679 78.7498868,36.174717 C78.7498868,36.174717 77.1053585,30.6018868 75.2268679,26.0735849 Z"/>
    <path id="S1fVtxCqbQ" d="M12.978566,60.3686792 C12.7861132,60.5611321 12.4495094,60.7460377 12.3295094,60.809434 C12.333283,60.7279245 11.9544151,60.4350943 11.5687547,59.6645283 C9.92422642,56.3754717 4.99139623,42.7520755 4.99139623,42.5166038 C4.75667925,41.8116981 4.75667925,38.5233962 4.99139623,37.5837736 C5.22686792,36.8788679 10.1589434,23.7249057 11.5687547,20.4358491 C12.0389434,19.4962264 12.5083774,19.2615094 12.5083774,19.2615094 C12.5083774,19.2615094 12.978566,19.2615094 13.213283,19.7316981 L20.0253585,26.5430189 C17.2064906,30.3015094 15.5619623,35.0003774 15.5619623,40.1679245 C15.5619623,45.1007547 17.2064906,49.7981132 19.7906415,53.5573585 L12.978566,60.3686792 Z"/>
    <path id="SJmEFxRq-7" d="M42.1053585,74.9332075 C41.6359245,74.9332075 40.9317736,75.1679245 39.5219623,75.1679245 C38.1121509,75.1679245 37.173283,74.9332075 36.9378113,74.9332075 C36.2336604,74.6984906 23.0789434,69.7649057 19.7906415,68.3558491 C19.0857358,67.8856604 18.8502642,67.4162264 18.8502642,67.4162264 C18.8502642,67.4162264 18.8502642,66.9460377 19.3204528,66.7113208 L26.1325283,59.8992453 C29.8910189,62.4833962 34.3544151,63.8924528 39.2872453,63.8924528 C44.2200755,63.8924528 48.9181887,62.2486792 52.9113962,59.6645283 L59.9589434,66.7113208 C60.1929057,66.9460377 60.4283774,67.4162264 60.4283774,67.4162264 C60.4283774,67.4162264 60.1929057,67.8856604 59.253283,68.3558491 C55.9649811,69.9996226 42.3408302,74.9332075 42.1053585,74.9332075 Z"/>
    <path id="rJENKe05-Q" d="M67.7098868,59.6645283 C67.2404528,60.6041509 66.7702642,60.8388679 66.7702642,60.8388679 C66.7702642,60.8388679 66.3008302,60.8388679 66.0653585,60.3686792 L59.0193208,53.3218868 C61.368,49.5633962 62.7770566,45.1007547 62.7770566,40.4026415 C62.7770566,35.4698113 61.368,31.0064151 58.7838491,27.2479245 L66.0653585,19.9664151 C66.3008302,19.7316981 66.7702642,19.4962264 66.7702642,19.4962264 C66.7702642,19.4962264 67.2404528,19.7316981 67.7098868,20.6713208 C69.1189434,23.9596226 74.0517736,37.5837736 74.2872453,37.5837736 C74.522717,38.2879245 74.522717,41.5769811 74.2872453,42.5166038 C74.0517736,43.2215094 69.1189434,56.3754717 67.7098868,59.6645283 Z"/>
    <path id="rJrEFlR9WQ" d="M37.173283,4.69773585 C37.408,4.69773585 38.1121509,4.46301887 39.5219623,4.46301887 C40.9317736,4.46301887 41.8713962,4.69773585 42.1053585,4.69773585 C42.8102642,4.93245283 55.9649811,9.86528302 59.253283,11.2743396 C60.1929057,11.7445283 60.4283774,11.98 60.4283774,12.214717 C60.4283774,12.214717 60.4283774,12.6841509 59.9589434,12.9188679 L52.2064906,20.6713208 C48.4487547,18.0871698 43.9853585,16.6773585 39.2872453,16.6773585 C34.5891321,16.6773585 30.3604528,18.0871698 26.837434,20.2011321 L19.5551698,12.6841509 C19.3204528,12.449434 19.0857358,11.98 19.0857358,11.98 C19.0857358,11.98 19.3204528,11.5098113 20.2600755,11.0396226 C23.5483774,9.86528302 37.173283,4.93245283 37.173283,4.69773585 Z"/>
    <polygon id="ryIVKeCcbm" points="25.118 45.372 25.118 35.272 34.044 35.272 34.044 26.346 44.145 26.346 44.145 35.272 53.071 35.272 53.071 45.372 44.145 45.372 44.145 54.299 34.044 54.299 34.044 45.372"/>
  </g></g>
<script>(function(){var a=document.querySelector('#B1VYeCqWQ'),b=a.querySelectorAll('style'),c=function(d){b.forEach(function(f){var g=f.textContent;g&amp;&amp;(f.textContent=g.replace(/transform-box:[^;\r\n]*/gi,'transform-box: '+d))})};c('initial'),window.requestAnimationFrame(function(){return c('fill-box')})})();</script></svg>