<svg xmlns="http://www.w3.org/2000/svg" width="48" height="48" viewBox="0 0 48 48">
  <path fill="#FFFFFF" d="M30.0034758,7.39127874 L30.0008671,17.9999845 C34.8801036,17.9999064 38.4164761,17.999532 40.6092139,17.9988619 C39.254311,12.8239113 35.1781366,8.74711412 30.0034758,7.39127874 Z M43.0001639,19.9975001 C41.7789446,19.9991667 36.7790151,20 28.0003753,20 L28.0040637,5 C35.8993233,5.82786622 42.1730168,12.1020264 43.0001639,19.9975001 Z M23,41 C14.163444,41 7,33.836556 7,25 C7,16.163444 14.163444,9 23,9 L23,25 L39,25 C39,33.836556 31.836556,41 23,41 Z M21,11.1417777 C14.2154117,12.112237 9,17.9470562 9,25 C9,32.7319865 15.2680135,39 23,39 C30.0529438,39 35.887763,33.7845883 36.8582223,27 L21,27 L21,11.1417777 Z"/>
</svg>
