<svg xmlns="http://www.w3.org/2000/svg" 
  xmlns:xlink="http://www.w3.org/1999/xlink" width="24" height="24" viewBox="0 0 24 24">
  <defs>
    <path id="events-a" d="M15,4 L9,4 L9,4.5 C9,4.77614237 8.77614237,5 8.5,5 L6.5,5 C6.22385763,5 6,4.77614237 6,4.5 L6,4 L4,4 L4,6 L20,6 L20,7 L4,7 L4,20 L20,20 L20,4 L18,4 L18,4.5 C18,4.77614237 17.7761424,5 17.5,5 L15.5,5 C15.2238576,5 15,4.77614237 15,4.5 L15,4 Z M18,3 L20,3 C20.5522847,3 21,3.44771525 21,4 L21,20 C21,20.5522847 20.5522847,21 20,21 L4,21 C3.44771525,21 3,20.5522847 3,20 L3,4 C3,3.44771525 3.44771525,3 4,3 L6,3 L6,2.5 C6,2.22385763 6.22385763,2 6.5,2 L8.5,2 C8.77614237,2 9,2.22385763 9,2.5 L9,3 L15,3 L15,2.5 C15,2.22385763 15.2238576,2 15.5,2 L17.5,2 C17.7761424,2 18,2.22385763 18,2.5 L18,3 Z M7,3 L7,4 L8,4 L8,3 L7,3 Z M16,3 L16,4 L17,4 L17,3 L16,3 Z M12,16.2218339 L8.76718111,18.1995935 L9.64914628,14.5138387 L6.76918916,12.0504065 L10.5470925,11.7502444 L12,8.25 L13.4529075,11.7502444 L17.2308108,12.0504065 L14.3508537,14.5138387 L15.2328189,18.1995935 L12,16.2218339 Z M12,15.0495415 L13.6996217,16.0893285 L13.2359374,14.1515804 L14.7500456,12.856456 L12.7638514,12.6986488 L12,10.8584309 L11.2361486,12.6986488 L9.24995437,12.856456 L10.7640626,14.1515804 L10.3003783,16.0893285 L12,15.0495415 Z"/>
  </defs>
  <g fill="none" fill-rule="evenodd">
    <use fill="#FFFFFF" fill-rule="nonzero" xlink:href="#events-a"/>
  </g>
</svg>
