<svg xmlns="http://www.w3.org/2000/svg" 
  xmlns:xlink="http://www.w3.org/1999/xlink" width="24" height="24" viewBox="0 0 24 24">
  <defs>
    <path id="my-profile-a" d="M10.0327165,5.27056307 L10.0327165,4.02857143 C10.0327165,3.46050711 10.4733238,3 11.0168404,3 L12.9850881,3 C13.5286047,3 13.969212,3.46050711 13.969212,4.02857143 L13.969212,5.27043151 C17.1395961,6.00445004 19.0156951,8.60367074 19.0815506,12.6117522 C20.2525301,13.0356278 21.0878293,13.5455445 21.549481,14.1637458 C22.4902391,15.4235222 21.9459057,16.6959567 20.0266509,17.4704159 C19.6931602,17.6049863 19.3498435,17.7320844 18.9976258,17.8509613 C18.9991963,17.8670951 19,17.8834535 19,17.8999996 L19,20.4999996 C19,20.776142 18.7761424,20.9999996 18.5,20.9999996 C18.2238576,20.9999996 18,20.776142 18,20.4999996 L18,18.1586189 C16.1641366,18.6729372 14.1278497,18.9652851 12.0060879,18.9426035 C9.87564351,18.9652857 7.83675298,18.6729349 6,18.1585387 L6,20.5 C6,20.7761424 5.77614237,21 5.5,21 C5.22385763,21 5,20.7761424 5,20.5 L5,17.9 C5,17.8834488 5.0008042,17.8670854 5.00237567,17.8509468 C4.65013654,17.7320757 4.30683129,17.6049829 3.97334911,17.4704159 C2.05409427,16.6959567 1.50976091,15.4235222 2.45051904,14.1637458 C2.91211516,13.5456189 3.74891141,13.0355787 4.92199569,12.6111989 C4.9880086,8.60386335 6.86370521,6.00475781 10.0327165,5.27056307 Z M10.0327165,6.32731122 C7.38825461,7.03554629 5.90431669,9.28291197 5.90431669,12.8312936 C5.90431669,13.0199239 6.27424538,13.3708056 7.07091937,13.6746082 C8.17027275,14.0938341 9.8305004,14.3300983 12.0060873,14.3142135 C14.17397,14.3300981 15.8337069,14.0938353 16.9328041,13.67462 C17.7293202,13.3708145 18.0992204,13.0199203 18.0992204,12.8312936 C18.0992204,9.28245377 16.6149263,7.03514019 13.969212,6.32713332 L13.969212,8.65714286 C13.969212,9.22520717 13.5286047,9.68571429 12.9850881,9.68571429 L11.0168404,9.68571429 C10.4733238,9.68571429 10.0327165,9.22520717 10.0327165,8.65714286 L10.0327165,6.32731122 Z M18.8244005,13.6074661 C18.0545492,14.689765 15.6070571,15.3691862 12.0060861,15.3427597 C8.39773623,15.3691893 5.94860849,14.6896216 5.17885761,13.6070032 C4.205811,13.9664573 3.54073973,14.3755532 3.22631735,14.7965986 C2.7437138,15.4428567 2.96542456,15.9611281 4.32780283,16.510876 C6.52200119,17.3962807 9.1751023,17.9441194 12.0060911,17.9140854 C14.8252526,17.9441198 17.4781888,17.396204 19.6721972,16.510876 C21.0345754,15.9611281 21.2562862,15.4428567 20.7736826,14.7965986 C20.4589994,14.3752038 19.7954692,13.9664189 18.8244005,13.6074661 Z M11.0168404,4.02857143 L11.0168404,8.65714286 L12.9850881,8.65714286 L12.9850881,4.02857143 L11.0168404,4.02857143 Z"/>
  </defs>
  <g fill="none" fill-rule="evenodd">
    <use fill="#FFFFFF" fill-rule="nonzero" xlink:href="#my-profile-a"/>
  </g>
</svg>
