<svg xmlns="http://www.w3.org/2000/svg" 
  xmlns:xlink="http://www.w3.org/1999/xlink" width="24" height="24" viewBox="0 0 24 24">
  <defs>
    <path id="library-a" d="M7,17 L10,17 L10,10 L7,10 L7,17 Z M7,18 L7,20 L10,20 L10,18 L7,18 Z M3,17 L6,17 L6,9 L6,4 L3,4 L3,17 Z M3,18 L3,20 L6,20 L6,18 L3,18 Z M14,17 L14,7 L11,7 L11,17 L14,17 Z M14,18 L11,18 L11,20 L14,20 L14,18 Z M11,21 L6,21 L3,21 C2.44771525,21 2,20.5522847 2,20 L2,4 C2,3.44771525 2.44771525,3 3,3 L6,3 C6.55228475,3 7,3.44771525 7,4 L7,9 L10,9 L10,7 C10,6.44771525 10.4477153,6 11,6 L13.7899826,6 L13.3688742,4.77701249 C13.1890679,4.254817 13.4666292,3.68573209 13.9888247,3.50592576 L16.8253804,2.5292213 C17.3475759,2.34941497 17.9166608,2.62697623 18.0964671,3.14917172 L22.4960716,15.9265508 L22.5730292,15.9000521 L22.8985974,16.8455707 L22.8216397,16.8720694 L23.6311258,19.2229875 C23.8109321,19.745183 23.5333708,20.3142679 23.0111753,20.4940742 L20.1746196,21.4707787 C19.6524241,21.650585 19.0833392,21.3730238 18.9035329,20.8508283 L15,9.51414565 L15,20 C15,20.5522847 14.5522847,21 14,21 L11,21 Z M21.550553,16.2521189 L17.1509486,3.47473988 L14.3143928,4.45144434 L18.7139973,17.2288234 L21.550553,16.2521189 Z M21.8761211,17.1976375 L19.0395654,18.174342 L19.8490514,20.5252601 L22.6856072,19.5485557 L21.8761211,17.1976375 Z"/>
  </defs>
  <g fill="none" fill-rule="evenodd">
    <use fill="#FFFFFF" fill-rule="nonzero" xlink:href="#library-a"/>
  </g>
</svg>
