<svg xmlns="http://www.w3.org/2000/svg" 
  xmlns:xlink="http://www.w3.org/1999/xlink" width="24" height="24" viewBox="0 0 24 24">
  <defs>
    <path id="maintenance-a" d="M10.3072252,8.23995387 C10.7007166,7.84978916 11.3318891,7.83018679 11.7183075,8.21660513 C11.9198004,8.41809801 12.097486,8.5959107 12.2857527,8.78441091 C12.3291315,8.82784951 12.3629163,8.8616808 12.3904044,8.88920621 L13.8067928,7.47281783 C13.5443462,6.2680506 13.9056199,4.99020503 14.8065803,4.08924458 C15.7840533,3.11177161 17.2047408,2.77200693 18.4922759,3.17082371 C18.8549544,3.28316414 18.9651212,3.74147883 18.6944973,4.0121027 L17.0767719,5.62982813 L17.2939771,6.74257706 L18.406726,6.95978222 L20.0244514,5.3420568 C20.2950753,5.07143292 20.75339,5.18159974 20.8657304,5.54427819 C21.2644996,6.8316595 20.9245211,8.25204871 19.9469528,9.22961704 C19.054161,10.1224089 17.7909709,10.4856892 16.5661676,10.22733 L15.1476,11.6458976 L20.2349368,16.7332344 C20.4311187,16.9294164 20.5308102,17.2010904 20.5124984,17.4809444 L20.4513888,18.4248822 C20.4350869,18.6747682 20.3255594,18.9129519 20.146568,19.0919434 L18.9904228,20.2480885 C18.811428,20.4270833 18.5735946,20.5362479 18.3238308,20.5525419 L17.378166,20.6144367 C17.0986912,20.6320329 16.8272271,20.5326914 16.6313535,20.3368178 L11.5440167,15.2494809 L10.2686904,16.5248072 C10.5303593,17.7298988 10.1680428,19.008527 9.26702599,19.9095438 C7.83315907,21.3434108 5.52022203,21.355302 4.10073709,19.935817 C2.68144431,18.5165243 2.69295285,16.2028721 4.12665353,14.7691714 C5.02770063,13.8681243 6.30622657,13.5066686 7.51070838,13.7689023 L8.78707319,12.4925375 L8.11472417,11.8201884 C7.72713955,11.4326038 7.74812625,10.7990392 8.14163933,10.4055261 L8.21877321,10.3283922 C8.21083346,10.3209584 8.20298798,10.3133678 8.19524067,10.3056205 L5.80279233,7.91317212 L4.56496454,7.97871752 C4.18711772,7.93667852 3.86718963,7.68248576 3.74294555,7.32248098 L3.05060281,4.59218971 C2.92818071,4.23479633 3.02124028,3.83681457 3.29032042,3.56773443 L3.54656082,3.31149403 C3.81541706,3.04263779 4.21247492,2.94995258 4.5710161,3.07177643 L7.3007544,3.76610434 C7.65969344,3.88998195 7.91484978,4.20894647 7.95704016,4.58817118 L7.89199809,5.82396553 L10.2844468,8.21641429 C10.2921964,8.22416388 10.2997892,8.23201172 10.3072252,8.23995387 Z M12.2624272,14.5044941 C12.2626969,14.5109848 12.2629454,14.5174793 12.2631726,14.5239775 C12.2632079,14.5249673 13.9546542,16.2174409 17.3375116,19.6013984 L18.2679547,19.5404983 C18.2687372,19.5404472 18.273058,19.538464 18.2769281,19.5345938 L19.4330733,18.3784487 C19.4371166,18.3744054 19.4393032,18.3696504 19.4393217,18.3693666 L19.4995268,17.4394019 L14.3948218,12.3346969 C13.6162254,12.1852989 12.9326734,11.9530108 12.5335571,11.5538946 C12.0269877,11.0473251 11.7464612,10.3753466 11.7224133,9.66286282 C11.6875016,9.62790651 11.6408877,9.58122838 11.5645264,9.50476179 C11.382531,9.32254066 11.2104432,9.15032667 11.0171398,8.95701497 L8.85513401,11.1190208 L9.54850902,11.8123958 C10.2746522,11.847431 10.9460315,12.1287352 11.452374,12.6350777 C11.9521672,13.1348709 12.233045,13.7973815 12.2624264,14.5044729 L12.2756986,14.5177451 C12.2748066,14.5194169 12.2714039,14.5137136 12.2624272,14.5044941 Z M12.7733628,9.93509431 C12.8430568,10.2748154 13.0064214,10.5851814 13.2543459,10.8331058 C13.403184,10.981944 13.7407568,11.1231805 14.1364337,11.2319316 L16.0637724,9.30459291 C16.2040746,9.1642907 16.4122244,9.11734157 16.5972616,9.18426199 L16.641719,9.20182829 C17.5551906,9.4570008 18.5470664,9.20437116 19.2353152,8.51612236 C19.7105705,8.04086706 19.9771523,7.4209972 20.0127637,6.78259092 L18.9291818,7.8661728 C18.8086726,7.9866821 18.6365149,8.0395937 18.4704161,8.00717171 L16.7606988,7.67344018 C16.5601959,7.63430262 16.4041086,7.47821532 16.364971,7.27771237 L16.0312395,5.56799513 C15.9988175,5.40189624 16.0517291,5.22973863 16.1722384,5.10922934 L17.2559261,4.02554162 C16.6172634,4.06100781 15.9971673,4.32750401 15.5219321,4.80273927 C14.8313667,5.49330467 14.5797567,6.48932197 14.8270636,7.36790183 L14.8528836,7.43769003 C14.9216186,7.6234713 14.8750712,7.83338587 14.7338183,7.97463881 L12.7733628,9.93509431 Z M9.83702296,12.8714341 L8.03048297,14.6779741 C7.92187997,14.7865771 7.77058887,14.8409104 7.61867948,14.8258654 L7.53947726,14.8180213 L7.45069283,14.8010947 C6.53357101,14.5391507 5.53408897,14.7905824 4.84200529,15.4826661 C3.80642117,16.5182502 3.7981068,18.1897522 4.8233829,19.2150283 C5.84879783,20.2404432 7.51958412,20.2318534 8.55538838,19.1960492 C9.24504632,18.5063912 9.49797044,17.5114858 9.24127936,16.5965425 L9.22726953,16.5292369 L9.21482051,16.4389426 C9.1930515,16.2810495 9.24700031,16.121365 9.36043707,16.0079282 L11.1940445,14.1743208 C11.1162065,13.8649129 10.9595317,13.5838129 10.7315853,13.3558664 C10.4868912,13.1111724 10.1800147,12.9473294 9.83702296,12.8714341 Z M6.75,18.3326129 C6.19771525,18.3326129 5.75,17.8843127 5.75,17.3313064 C5.75,16.7783001 6.19771525,16.3299999 6.75,16.3299999 C7.30228475,16.3299999 7.75,16.7783001 7.75,17.3313064 C7.75,17.8843127 7.30228475,18.3326129 6.75,18.3326129 Z M4.69823377,6.97314046 L5.93072677,6.90578426 C6.15373561,6.93025561 6.36070593,7.02950811 6.5186874,7.18748957 L8.89961916,9.56842134 L9.54724785,8.92079265 L7.16631608,6.53986089 C7.00833462,6.38187942 6.90908212,6.17490909 6.8845431,5.95128 L6.95070066,4.72067772 L4.24838888,4.03665546 L4.01548324,4.2695611 L4.69823377,6.97314046 Z"/>
  </defs>
  <g fill="none" fill-rule="evenodd">
    <use fill="#FFFFFF" fill-rule="nonzero" xlink:href="#maintenance-a"/>
  </g>
</svg>
