<svg xmlns="http://www.w3.org/2000/svg" 
  xmlns:xlink="http://www.w3.org/1999/xlink" width="24" height="24" viewBox="0 0 24 24">
  <defs>
    <path d="M14.0620971,7.7197359 C15.5150142,5.83922726 16.3205223,4.79173197 16.4678465,4.59138299 C16.5221524,4.51753139 16.5163756,4.50010459 16.5226312,4.50010459 L15.2899676,4.50010459 C15.0259515,4.50010459 14.7667399,4.39701326 14.4239677,4.19826546 C14.3073034,4.13062064 14.1848202,4.05411112 14.0165837,3.94521716 C14.0242166,3.95015766 13.6910388,3.73315794 13.5943744,3.67138177 C13.1518299,3.38856104 12.8312587,3.21421191 12.5290424,3.10608832 C12.3311615,3.03529264 12.1553193,3.00004184 12.0004184,3.00004184 C11.8455174,3.00004184 11.6696753,3.03529264 11.4717943,3.10608832 C11.1695781,3.21421191 10.8490068,3.38856104 10.4064624,3.67138177 C10.3097979,3.73315794 9.97662017,3.95015766 9.98425303,3.94521716 C9.81601658,4.05411112 9.69353333,4.13062064 9.57686908,4.19826546 C9.23409688,4.39701326 8.97488525,4.50010459 8.7108691,4.50010459 L7.47820556,4.50010459 C7.4844611,4.50010459 7.47868433,4.51753139 7.53299021,4.59138299 C7.68031441,4.79173197 8.4858225,5.83922726 9.93873964,7.7197359 C10.5623147,7.41885698 11.2616729,7.25021964 12.0004184,7.25021964 C12.7391639,7.25021964 13.438522,7.41885698 14.0620971,7.7197359 Z M9.08472403,8.25006045 C7.6616242,6.40801699 6.87927085,5.3904588 6.72732234,5.18382113 C6.2328029,4.51131477 6.56802093,3.50006276 7.47820556,3.50006276 L8.7108691,3.50006276 C8.8129648,3.50006276 8.86140568,3.47197554 9.867937,2.82872282 C10.368918,2.50855656 10.7451141,2.3039547 11.134921,2.16449388 C11.4340713,2.0574672 11.7207359,2 12.0004184,2 C12.2801009,2 12.5667654,2.0574672 12.8659157,2.16449388 C13.2557226,2.3039547 13.6319188,2.50855656 14.1328997,2.82872282 C15.1394311,3.47197554 15.1878719,3.50006276 15.2899676,3.50006276 L16.5226312,3.50006276 C17.4328158,3.50006276 17.7680338,4.51131477 17.2735144,5.18382113 C17.1215659,5.3904588 16.3392125,6.40801699 14.9161127,8.25006045 C15.2275363,8.49252287 15.5079668,8.77292362 15.750462,9.08432039 C17.5921754,7.66147627 18.6095607,6.87925648 18.8161789,6.72732234 C19.4886852,6.2328029 20.4999372,6.56802093 20.4999372,7.47820556 L20.4999372,8.7108691 C20.4999372,8.8129648 20.5280245,8.86140568 21.1712772,9.867937 C21.4914434,10.368918 21.6960453,10.7451141 21.8355061,11.134921 C21.9425328,11.4340713 22,11.7207359 22,12.0004184 C22,12.2801009 21.9425328,12.5667654 21.8355061,12.8659157 C21.6960453,13.2557226 21.4914434,13.6319188 21.1712772,14.1328997 C20.5280245,15.1394311 20.4999372,15.1878719 20.4999372,15.2899676 L20.4999372,16.5226312 C20.4999372,17.4328158 19.4886852,17.7680338 18.8161789,17.2735144 C18.6095607,17.1215803 17.5921754,16.3393605 15.750462,14.9165163 C15.5082606,15.2275358 15.2282158,15.5076343 14.9172446,15.7498948 C16.3403663,17.5919665 17.1227311,18.6095395 17.2746808,18.8161789 C17.7692002,19.4886852 17.4339822,20.4999372 16.5237976,20.4999372 L15.291134,20.4999372 C15.1890383,20.4999372 15.1405975,20.5280245 14.1340661,21.1712772 C13.6330852,21.4914434 13.256889,21.6960453 12.8670821,21.8355061 C12.5679318,21.9425328 12.2812673,22 12.0015848,22 C11.7219023,22 11.4352377,21.9425328 11.1360874,21.8355061 C10.7462805,21.6960453 10.3700844,21.4914434 9.8691034,21.1712772 C8.86257208,20.5280245 8.8141312,20.4999372 8.71203551,20.4999372 L7.47937197,20.4999372 C6.56918733,20.4999372 6.23396931,19.4886852 6.72848874,18.8161789 C6.88040729,18.6095819 7.66248211,17.5923842 9.08504872,15.7510291 C8.77336083,15.508404 8.49271189,15.227779 8.25006045,14.9161127 C6.40801699,16.3392125 5.3904588,17.1215659 5.18382113,17.2735144 C4.51131477,17.7680338 3.50006276,17.4328158 3.50006276,16.5226312 L3.50006276,15.2899676 C3.50006276,15.1878719 3.47197554,15.1394311 2.82872282,14.1328997 C2.50855656,13.6319188 2.3039547,13.2557226 2.16449388,12.8659157 C2.0574672,12.5667654 2,12.2801009 2,12.0004184 C2,11.7207359 2.0574672,11.4340713 2.16449388,11.134921 C2.3039547,10.7451141 2.50855656,10.368918 2.82872282,9.867937 C3.47197554,8.86140568 3.50006276,8.8129648 3.50006276,8.7108691 L3.50006276,7.47820556 C3.50006276,6.56802093 4.51131477,6.2328029 5.18382113,6.72732234 C5.3904588,6.87927085 6.40801699,7.6616242 8.25006045,9.08472403 C8.49262763,8.77316592 8.77316592,8.49262763 9.08472402,8.25006045 Z M9.93911838,16.2812836 C8.48669777,18.1611513 7.68145419,19.2083042 7.53415662,19.408617 C7.47985073,19.4824686 7.4856275,19.4998954 7.47937197,19.4998954 L8.71203551,19.4998954 C8.97605165,19.4998954 9.23526328,19.6029867 9.57803548,19.8017345 C9.69469974,19.8693794 9.81718298,19.9458889 9.98541943,20.0547828 C9.97778657,20.0498423 10.3109644,20.2668421 10.4076288,20.3286182 C10.8501732,20.611439 11.1707445,20.7857881 11.4729607,20.8939117 C11.6708417,20.9647074 11.8466839,20.9999582 12.0015848,20.9999582 C12.1564857,20.9999582 12.3323279,20.9647074 12.5302088,20.8939117 C12.8324251,20.7857881 13.1529963,20.611439 13.5955408,20.3286182 C13.6922052,20.2668421 14.025383,20.0498423 14.0177501,20.0547828 C14.1859866,19.9458889 14.3084698,19.8693794 14.4251341,19.8017345 C14.7679063,19.6029867 15.0271179,19.4998954 15.291134,19.4998954 L16.5237976,19.4998954 C16.517542,19.4998954 16.5233188,19.4824686 16.4690129,19.408617 C16.3216939,19.2082751 15.5162376,18.1608468 14.0634175,16.2804635 C13.4395094,16.5817416 12.7396854,16.7506171 12.0004184,16.7506171 C11.2618224,16.7506171 10.5625979,16.582048 9.93911838,16.2812836 Z M7.7197359,9.93873964 C5.83922726,8.4858225 4.79173197,7.68031441 4.59138299,7.53299021 C4.51753139,7.47868433 4.50010459,7.4844611 4.50010459,7.47820556 L4.50010459,8.7108691 C4.50010459,8.97488525 4.39701326,9.23409688 4.19826546,9.57686908 C4.13062064,9.69353333 4.05411112,9.81601658 3.94521716,9.98425303 C3.95015766,9.97662017 3.73315794,10.3097979 3.67138177,10.4064624 C3.38856104,10.8490068 3.21421191,11.1695781 3.10608832,11.4717943 C3.03529264,11.6696753 3.00004184,11.8455174 3.00004184,12.0004184 C3.00004184,12.1553193 3.03529264,12.3311615 3.10608832,12.5290424 C3.21421191,12.8312587 3.38856104,13.1518299 3.67138177,13.5943744 C3.73315794,13.6910388 3.95015766,14.0242166 3.94521716,14.0165837 C4.05411112,14.1848202 4.13062064,14.3073034 4.19826546,14.4239677 C4.39701326,14.7667399 4.50010459,15.0259515 4.50010459,15.2899676 L4.50010459,16.5226312 C4.50010459,16.5163756 4.51753139,16.5221524 4.59138299,16.4678465 C4.79173197,16.3205223 5.83922726,15.5150142 7.7197359,14.0620971 C7.41885698,13.438522 7.25021964,12.7391639 7.25021964,12.0004184 C7.25021964,11.2616729 7.41885698,10.5623147 7.7197359,9.93873964 Z M16.2808736,14.062568 C18.1609991,15.5151883 19.2082897,16.3205382 19.408617,16.4678465 C19.4824686,16.5221524 19.4998954,16.5163756 19.4998954,16.5226312 L19.4998954,15.2899676 C19.4998954,15.0259515 19.6029867,14.7667399 19.8017345,14.4239677 C19.8693794,14.3073034 19.9458889,14.1848202 20.0547828,14.0165837 C20.0498423,14.0242166 20.2668421,13.6910388 20.3286182,13.5943744 C20.611439,13.1518299 20.7857881,12.8312587 20.8939117,12.5290424 C20.9647074,12.3311615 20.9999582,12.1553193 20.9999582,12.0004184 C20.9999582,11.8455174 20.9647074,11.6696753 20.8939117,11.4717943 C20.7857881,11.1695781 20.611439,10.8490068 20.3286182,10.4064624 C20.2668421,10.3097979 20.0498423,9.97662017 20.0547828,9.98425303 C19.9458889,9.81601658 19.8693794,9.69353333 19.8017345,9.57686908 C19.6029867,9.23409688 19.4998954,8.97488525 19.4998954,8.7108691 L19.4998954,7.47820556 C19.4998954,7.4844611 19.4824686,7.47868433 19.408617,7.53299021 C19.2082897,7.68029849 18.1609991,8.48564845 16.2808736,9.93826873 C16.5818949,10.5619626 16.7506171,11.2614869 16.7506171,12.0004184 C16.7506171,12.7393498 16.5818949,13.4388741 16.2808736,14.062568 Z M12.0004184,15.7505753 C14.0715728,15.7505753 15.7505753,14.0715728 15.7505753,12.0004184 C15.7505753,9.92926391 14.0715728,8.25026148 12.0004184,8.25026148 C9.92926391,8.25026148 8.25026148,9.92926391 8.25026148,12.0004184 C8.25026148,14.0715728 9.92926391,15.7505753 12.0004184,15.7505753 Z"/>
  </defs>
  <g fill="none" fill-rule="evenodd">
    <use fill="#FFFFFF" fill-rule="nonzero" xlink:href="#administration-a"/>
  </g>
</svg>
