<?xml version="1.0" encoding="UTF-8"?>
<svg viewBox="0 0 24 24" 
  xmlns="http://www.w3.org/2000/svg" 
  xmlns:xlink="http://www.w3.org/1999/xlink">
  <defs>
    <path id="a" d="m19.43 4.5929l-1.5312-1.1539 4.1008-1.4391-0.25299 4.3386-1.5222-1.147-5.0653 6.2962c-0.17155 0.21323-0.48265 0.24893-0.69804 0.080097l-4.9315-3.8656c-0.19085-0.1496-0.46155-0.14069-0.64214 0.02115l-6.0532 5.4244c-0.20358 0.18244-0.51594 0.16755-0.70126-0.033413l-0.0038293-0.0041527c-0.1837-0.19921-0.17112-0.50963 0.02809-0.69333 0.0019258-0.0017758 0.0038657-0.0035361 0.0058197-0.0052809l6.7232-6.0033c0.18115-0.16176 0.45235-0.16995 0.64293-0.019414l4.8002 3.7914c0.21584 0.17048 0.52885 0.13462 0.70054-0.080268l4.4-5.5071zm-15.93 11.907c0.27616 0 0.50004 0.22387 0.50004 0.50004v3.4999c0 0.27616-0.22387 0.50004-0.50004 0.50004s-0.50004-0.22387-0.50004-0.50004v-3.4999c0-0.27616 0.22387-0.50004 0.50004-0.50004zm5.6622-3.5c0.27616 0 0.50004 0.22387 0.50004 0.50004v6.9999c0 0.27616-0.22387 0.50004-0.50004 0.50004s-0.50004-0.22387-0.50004-0.50004v-6.9999c0-0.27616 0.22387-0.50004 0.50004-0.50004zm5.6682 2c0.27616 0 0.50004 0.22387 0.50004 0.50004v4.9999c0 0.27616-0.22387 0.50004-0.50004 0.50004s-0.50004-0.22387-0.50004-0.50004v-4.9999c0-0.27616 0.22387-0.50004 0.50004-0.50004zm5.6682-5c0.27616 0 0.50004 0.22387 0.50004 0.50004v9.9999c0 0.27616-0.22387 0.50004-0.50004 0.50004s-0.50004-0.22387-0.50004-0.50004v-9.9999c0-0.27616 0.22387-0.50004 0.50004-0.50004z"/>
  </defs>
  <g fill="none" fill-rule="evenodd">
    <use fill="#000000" xlink:href="#a"/>
  </g>
</svg>
