<svg xmlns="http://www.w3.org/2000/svg" 
  xmlns:xlink="http://www.w3.org/1999/xlink" width="24" height="24" viewBox="0 0 24 24">
  <defs>
    <path id="calendar-a" d="M16,16.5 L16,14 L12.5,14 L12.5,16.5 L16,16.5 Z M16.8535534,17.3535534 C16.7630712,17.4440356 16.6380712,17.5 16.5,17.5 L7.5,17.5 C7.36192881,17.5 7.23692881,17.4440356 7.14644661,17.3535534 C7.05596441,17.2630712 7,17.1380712 7,17 L7,10 C7,9.72385763 7.22385763,9.5 7.5,9.5 L16.5,9.5 C16.7761424,9.5 17,9.72385763 17,10 L17,17 C17,17.1380712 16.9440356,17.2630712 16.8535534,17.3535534 Z M8,16.5 L11.5,16.5 L11.5,14 L8,14 L8,16.5 Z M11.5,10.5 L8,10.5 L8,13 L11.5,13 L11.5,10.5 Z M12.5,10.5 L12.5,13 L16,13 L16,10.5 L12.5,10.5 Z M15,4 L9,4 L9,4.5 C9,4.77614237 8.77614237,5 8.5,5 L6.5,5 C6.22385763,5 6,4.77614237 6,4.5 L6,4 L4,4 L4,6 L20,6 L20,7 L4,7 L4,20 L20,20 L20,4 L18,4 L18,4.5 C18,4.77614237 17.7761424,5 17.5,5 L15.5,5 C15.2238576,5 15,4.77614237 15,4.5 L15,4 Z M18,3 L20,3 C20.5522847,3 21,3.44771525 21,4 L21,20 C21,20.5522847 20.5522847,21 20,21 L4,21 C3.44771525,21 3,20.5522847 3,20 L3,4 C3,3.44771525 3.44771525,3 4,3 L6,3 L6,2.5 C6,2.22385763 6.22385763,2 6.5,2 L8.5,2 C8.77614237,2 9,2.22385763 9,2.5 L9,3 L15,3 L15,2.5 C15,2.22385763 15.2238576,2 15.5,2 L17.5,2 C17.7761424,2 18,2.22385763 18,2.5 L18,3 Z M7,3 L7,4 L8,4 L8,3 L7,3 Z M16,3 L16,4 L17,4 L17,3 L16,3 Z"/>
  </defs>
  <g fill="none" fill-rule="evenodd">
    <use fill="#000000" fill-rule="nonzero" xlink:href="#calendar-a"/>
  </g>
</svg>
