<svg xmlns="http://www.w3.org/2000/svg" 
  xmlns:xlink="http://www.w3.org/1999/xlink" width="24" height="24" viewBox="0 0 24 24">
  <defs>
    <path id="collapse-expand-a" d="M18.3273884,9 L7.63500023,9 C7.35885785,9 7.13500023,8.77614237 7.13500023,8.5 C7.13500023,8.22385763 7.35885785,8 7.63500023,8 L18.2563206,8 L16.3169807,6.06066017 C16.1217186,5.86539803 16.1217186,5.54881554 16.3169807,5.35355339 C16.5122429,5.15829124 16.8288254,5.15829124 17.0240875,5.35355339 L19.8525147,8.18198052 C20.0477768,8.37724266 20.0477768,8.69382515 19.8525147,8.8890873 L17.0240875,11.7175144 C16.8288254,11.9127766 16.5122429,11.9127766 16.3169807,11.7175144 C16.1217186,11.5222523 16.1217186,11.2056698 16.3169807,11.0104076 L18.3273884,9 Z M5.67157288,16 L7.68198052,18.0104076 C7.87724266,18.2056698 7.87724266,18.5222523 7.68198052,18.7175144 C7.48671837,18.9127766 7.17013588,18.9127766 6.97487373,18.7175144 L4.14644661,15.8890873 C3.95118446,15.6938252 3.95118446,15.3772427 4.14644661,15.1819805 L6.97487373,12.3535534 C7.17013588,12.1582912 7.48671837,12.1582912 7.68198052,12.3535534 C7.87724266,12.5488155 7.87724266,12.865398 7.68198052,13.0606602 L5.74264069,15 L16.363961,15 C16.6401034,15 16.863961,15.2238576 16.863961,15.5 C16.863961,15.7761424 16.6401034,16 16.363961,16 L5.67157288,16 Z"/>
  </defs>
  <g fill="none" fill-rule="evenodd">
    <use fill="#000000" xlink:href="#collapse-expand-a"/>
  </g>
</svg>
