<svg xmlns="http://www.w3.org/2000/svg" xmlns:xlink="http://www.w3.org/1999/xlink" width="24" height="24" viewBox="0 0 24 24">
  <defs>
    <path id="daily-roster-a" d="M5.43087002,10.9805371 C3.3662785,10.4016075 2,9.39494455 2,8.25 C2,7.37086486 2.8055298,6.57325772 4.11419929,5.98821431 C4.49945002,4.31143963 5.82155319,2.992368 7.5,2.61150821 L7.5,2 C7.5,1.72385763 7.72385763,1.5 8,1.5 L11,1.5 C11.2761424,1.5 11.5,1.72385763 11.5,2 L11.5,2.61150821 C13.1784468,2.992368 14.50055,4.31143963 14.8858007,5.98821431 C16.1944702,6.57325772 17,7.37086486 17,8.25 C17,9.39494455 15.6337215,10.4016075 13.56913,10.9805371 C13.0414783,12.7277275 11.4193167,14 9.5,14 C8.84894589,14 8.23208376,13.8536068 7.68053526,13.5919419 C7.47133517,13.7339528 7.23428335,13.8814943 6.96703565,14.0375014 C6.62718975,14.2358882 6.25754017,14.4376742 5.75762749,14.7011383 C5.6608947,14.7521185 4.94222356,15.1281721 4.74244556,15.2342149 C4.37542211,15.4290321 4.09818192,15.5820736 3.86351427,15.7212235 C3.33943694,16.0319834 3.05311766,16.8466802 3.00237762,18.3501975 C3.00083433,18.3959279 3.00046736,18.6125287 3.00127671,19 L10.5043491,19 L10.5043491,20 L2.0026621,20 C2.00088896,18.935807 2.00098379,18.3746301 2.00294658,18.3164692 C2.06410285,16.5043007 2.45420056,15.3943113 3.35347439,14.8610727 C3.60424301,14.7123756 3.8938544,14.5525049 4.27359816,14.3509357 C4.47652514,14.2432214 5.19705205,13.8661968 5.29139307,13.8164771 C5.77959777,13.5591833 6.13804991,13.3635098 6.46289293,13.1738811 C6.56657048,13.1133588 6.66488276,13.0544908 6.75790068,12.9971788 C6.13869161,12.4737537 5.67122609,11.7764178 5.43087002,10.9805371 Z M5.25206883,9.88388633 C5.25069299,9.83942616 5.25,9.79479401 5.25,9.75 L5.25,8.5 C5.25,8.22385763 5.47385763,8 5.75,8 L13.25,8 C13.5261424,8 13.75,8.22385763 13.75,8.5 L13.75,9.75 C13.75,9.79479401 13.749307,9.83942616 13.7479312,9.88388633 C15.13476,9.43431564 16,8.80848942 16,8.25 C16,7.23598858 13.1477187,6 9.5,6 C5.85228135,6 3,7.23598858 3,8.25 C3,8.80848942 3.86523996,9.43431564 5.25206883,9.88388633 Z M8.5,3.5 C7.08283919,3.5 5.86239868,4.34225967 5.31195041,5.55350704 C6.50792216,5.20401971 7.94897875,5 9.5,5 C11.0510213,5 12.4920778,5.20401971 13.6880496,5.55350704 C13.1376013,4.34225967 11.9171608,3.5 10.5,3.5 L10.5,2.5 L8.5,2.5 L8.5,3.5 Z M22,18.047619 L14,18.047619 L14,21 L14.25,21 L14.75,21 L21.25,21 L21.75,21 L22,21 L22,18.047619 Z M22,17 L22,14 L14,14 L14,17 L22,17 Z M21,22 L15,22 L15,23.75 C15,23.8880712 14.8880712,24 14.75,24 L14.25,24 C14.1119288,24 14,23.8880712 14,23.75 L14,22 L12.5,22 C12.2238576,22 12,21.7761424 12,21.5 C12,21.2238576 12.2238576,21 12.5,21 L13,21 L13,14 C13,13.4477153 13.4477153,13 14,13 L16,13 L16,12.5 C16,12.2238576 16.2238576,12 16.5,12 L19.5,12 C19.7761424,12 20,12.2238576 20,12.5 L20,13 L22,13 C22.5522847,13 23,13.4477153 23,14 L23,21 L23.5,21 C23.7761424,21 24,21.2238576 24,21.5 C24,21.7761424 23.7761424,22 23.5,22 L22,22 L22,23.75 C22,23.8880712 21.8880712,24 21.75,24 L21.25,24 C21.1119288,24 21,23.8880712 21,23.75 L21,22 Z M17.5,14 L18.5,14 L18.5,17 L17.5,17 L17.5,14 Z M15.5,20 C15.2238576,20 15,19.7761424 15,19.5 C15,19.2238576 15.2238576,19 15.5,19 C15.7761424,19 16,19.2238576 16,19.5 C16,19.7761424 15.7761424,20 15.5,20 Z M20.5,20 C20.2238576,20 20,19.7761424 20,19.5 C20,19.2238576 20.2238576,19 20.5,19 C20.7761424,19 21,19.2238576 21,19.5 C21,19.7761424 20.7761424,20 20.5,20 Z M6.25,9 L6.25,9.75 C6.25,11.5449254 7.70507456,13 9.5,13 C11.2949254,13 12.75,11.5449254 12.75,9.75 L12.75,9 L6.25,9 Z"/>
  </defs>
  <g fill="none" fill-rule="evenodd">
    <use fill="#FFFFFF" xlink:href="#daily-roster-a"/>
  </g>
</svg>
