<svg xmlns="http://www.w3.org/2000/svg" xmlns:xlink="http://www.w3.org/1999/xlink" width="24" height="24" viewBox="0 0 24 24">
  <defs>
    <path id="demographics-a" d="M13.0294097,17.5454545 C13.2385558,19.4731877 14.543424,21.0721263 16.308317,21.7065731 C15.7382542,20.7135236 15.3528405,19.2298532 15.2838454,17.5454545 L13.0294097,17.5454545 Z M13.0294097,16.4545455 L15.2838454,16.4545455 C15.3528405,14.7701468 15.7382542,13.2864764 16.308317,12.2934269 C14.543424,12.9278737 13.2385558,14.5268123 13.0294097,16.4545455 Z M22.9705903,16.4545455 C22.7614442,14.5268123 21.456576,12.9278737 19.691683,12.2934269 C20.2617458,13.2864764 20.6471595,14.7701468 20.7161546,16.4545455 L22.9705903,16.4545455 Z M22.9705903,17.5454545 L20.7161546,17.5454545 C20.6471595,19.2298532 20.2617458,20.7135236 19.691683,21.7065731 C21.456576,21.0721263 22.7614442,19.4731877 22.9705903,17.5454545 Z M16.2847946,17.5454545 C16.3410962,18.8121741 16.5917989,19.9706298 16.9818934,20.8288377 C17.345466,21.6286973 17.7444924,22 18,22 C18.2555076,22 18.654534,21.6286973 19.0181066,20.8288377 C19.4082011,19.9706298 19.6589038,18.8121741 19.7152054,17.5454545 L16.2847946,17.5454545 Z M16.2847946,16.4545455 L19.7152054,16.4545455 C19.6589038,15.1878259 19.4082011,14.0293702 19.0181066,13.1711623 C18.654534,12.3713027 18.2555076,12 18,12 C17.7444924,12 17.345466,12.3713027 16.9818934,13.1711623 C16.5917989,14.0293702 16.3410962,15.1878259 16.2847946,16.4545455 Z M12.4051386,14.828162 C13.2753595,12.5879748 15.452234,11 18,11 C21.3137085,11 24,13.6862915 24,17 C24,20.3137085 21.3137085,23 18,23 C16.2230004,23 14.6264281,22.2274987 13.527787,21 L1,21 L1,20.5 C1,18.5377557 1.38261745,17.3774638 2.36463436,16.8460895 C2.61008996,16.7132722 2.89355653,16.5704792 3.26526281,16.3904323 C3.46390745,16.294213 4.16929497,15.9573918 4.26167269,15.9129649 C4.73969354,15.6830716 5.09068524,15.508228 5.40876389,15.3387875 C5.86376212,15.09641 6.21313888,14.88376 6.46265573,14.6933141 C6.71827311,14.498212 6.81530145,14.2001904 6.82513322,13.1834087 C6.73957688,13.0805708 6.6561682,12.9746992 6.57487618,12.8660307 C6.22736035,12.4014827 5.93237391,11.9063857 5.68764719,11.4112986 C5.59834527,11.230639 5.52675608,11.0731884 5.47265712,10.9457573 C4.8703444,10.6548399 4.58322933,10.1130919 4.58322933,9.5431685 L4.58322933,8.22999954 C4.58322933,7.71725311 4.7873366,7.33945256 5.04777712,7.08461827 C5.04813407,7.03434567 5.04859235,6.97979923 5.04915357,6.91979267 C5.05146769,6.6890161 5.05146769,6.6890161 5.05423324,6.42709465 C5.0591778,5.94448141 5.06158925,5.57502057 5.06158925,5.15999985 C5.06158925,4.29885296 5.45438895,3.44696459 6.10826582,2.94375481 C6.9929819,2.26289607 7.93601414,2 9.32999992,2 C10.7418055,2 11.6853852,2.26166444 12.5717017,2.94375481 C13.2255785,3.44696459 13.6183782,4.29885296 13.6183782,5.15999985 C13.6183782,5.57502057 13.6207897,5.94448141 13.6257343,6.42709465 C13.6284998,6.6890161 13.6284998,6.6890161 13.6308139,6.91979267 C13.631925,7.03859579 13.6326326,7.13599659 13.6329494,7.22120122 C13.8921977,7.36334232 13.8850566,7.36354116 13.555336,7.04079087 C13.6325371,7.11635994 13.6963503,7.18578534 13.7619895,7.27154519 C13.9703718,7.5438039 14.0967382,7.86090591 14.0967382,8.22999954 L14.0967382,9.5431685 C14.0967382,10.1130919 13.8096231,10.6548399 13.2073104,10.9457573 C13.1532114,11.0731884 13.0816222,11.230639 12.9923203,11.4112986 C12.7475936,11.9063857 12.4526071,12.4014827 12.1050913,12.8660307 C12.0237993,12.9746992 11.9403906,13.0805708 11.8548343,13.1834087 C11.864666,14.2001904 11.9616944,14.498212 12.2173118,14.6933141 C12.2746282,14.7370614 12.3372138,14.7819803 12.4051386,14.828162 Z M12.8026932,20 C12.2921829,19.1174799 12,18.0928614 12,17 C12,16.5997622 12.0391887,16.2086774 12.1139383,15.8303735 C11.9234961,15.7128137 11.756336,15.5994703 11.6105879,15.4882268 C11.0254351,15.041604 10.8539896,14.4485383 10.8539896,12.999968 L10.8539896,12.8116954 L10.978169,12.6701819 C11.0904069,12.5422768 11.1991611,12.4076335 11.3043513,12.2670187 C11.6122516,11.8554274 11.8765695,11.4118036 12.0958622,10.96817 C12.2266387,10.7036065 12.3121953,10.500773 12.3523536,10.3914777 L12.4348623,10.1669209 L12.6614874,10.0902754 C12.9755731,9.98405045 13.0967382,9.78071973 13.0967382,9.5431685 L13.0967382,8.22999954 C13.0967382,8.10160658 13.0519039,7.98909998 12.9678914,7.87933482 C13.0278416,7.9576618 12.6331427,7.57130686 12.6331427,7.31999969 C12.6331427,7.21560649 12.6323953,7.09355484 12.6308577,6.92914492 C12.6285579,6.69980801 12.6285579,6.69980801 12.6257867,6.4373395 C12.6208102,5.95160272 12.6183782,5.57900443 12.6183782,5.15999985 C12.6183782,4.60037493 12.3619038,4.04414329 11.9618176,3.73624549 C11.2686825,3.2028234 10.5372876,3 9.32999992,3 C8.14080045,3 7.41016632,3.20368428 6.71814984,3.73624549 C6.31806373,4.04414329 6.06158925,4.60037493 6.06158925,5.15999985 C6.06158925,5.57900443 6.05915732,5.95160272 6.05418076,6.4373395 C6.05140962,6.69980801 6.05140962,6.69980801 6.04910983,6.92914492 C6.04757216,7.09355484 6.04682475,7.21560649 6.04682475,7.31999969 L6.04682475,7.58508455 L5.82741617,7.73384563 C5.71879893,7.80748913 5.58322933,7.98650388 5.58322933,8.22999954 L5.58322933,9.5431685 C5.58322933,9.78071973 5.70439439,9.98405045 6.01848007,10.0902754 L6.24510519,10.1669209 L6.32761393,10.3914777 C6.3677722,10.500773 6.45332876,10.7036065 6.58410525,10.96817 C6.80339798,11.4118036 7.06771586,11.8554274 7.37561623,12.2670187 C7.48080634,12.4076335 7.58956057,12.5422768 7.70179847,12.6701819 L7.8259779,12.8116954 L7.8259779,12.999968 C7.8259779,14.4485383 7.65453238,15.041604 7.06937958,15.4882268 C6.76897808,15.7175108 6.37761513,15.9557159 5.87891687,16.2213725 C5.54626051,16.3985785 5.18443562,16.5788186 4.69508279,16.8141617 C4.60039793,16.8596982 3.89680069,17.1956645 3.70119439,17.2904121 C3.34181046,17.4644903 3.07032544,17.6012478 2.8405356,17.7255882 C2.33766331,17.997695 2.06305027,18.6953588 2.00967163,20 L12.8026932,20 Z"/>
  </defs>
  <g fill="none" fill-rule="evenodd">
    <use fill="#FFFFFF" fill-rule="nonzero" xlink:href="#demographics-a"/>
  </g>
</svg>
