<svg xmlns="http://www.w3.org/2000/svg" width="122" height="48" viewBox="0 0 122 48">
  <g fill="none" fill-rule="evenodd" transform="translate(0 10)">
    <path fill="#FFFFFF" d="M33.2354717,25.7148302 L20.6566038,25.7148302 C20.9854717,25.5502642 21.2321887,25.4681132 21.3964906,25.3859623 C22.3009434,24.9749434 22.6298113,24.3172075 22.7119623,23.9061887 C22.7119623,23.8237736 22.7119623,23.7416226 22.7119623,23.6594717 L31.2622642,23.6594717 L31.2622642,23.2481887 L22.7119623,23.2481887 C22.7119623,23.0838868 22.6298113,22.8371698 22.5476604,22.6728679 C22.7941132,22.8371698 23.1229811,22.9193208 23.3696981,22.9193208 C23.698566,22.9193208 24.3563019,22.8371698 24.8494717,22.097283 L31.3444151,22.097283 L31.3444151,21.6862642 L25.0961887,21.6862642 L25.1783396,21.6041132 C25.2607547,21.3573962 25.4250566,21.0285283 25.5896226,20.5350943 L31.2622642,20.5350943 L31.2622642,20.1240755 L25.7539245,20.1240755 C25.9182264,19.7952075 26.0827925,19.3841887 26.2470943,18.9731698 L31.3444151,18.9731698 L31.3444151,18.5621509 L26.4116604,18.5621509 C26.5759623,18.1511321 26.7405283,17.7398491 26.8226792,17.4109811 L31.3444151,17.4109811 L31.3444151,17.0821132 L26.9872453,17.0821132 C27.1515472,16.5889434 27.3158491,16.1779245 27.3982642,15.9312075 L31.3444151,15.9312075 L31.3444151,15.4380377 L27.562566,15.4380377 C27.644717,15.1910566 27.7271321,14.6978868 27.7271321,14.2868679 L31.3444151,14.2868679 L31.3444151,13.8758491 L27.7271321,13.8758491 C27.7271321,13.4648302 27.644717,12.9713962 27.562566,12.7249434 L31.3444151,12.7249434 L31.3444151,12.3136604 L27.4804151,12.3136604 C27.3982642,12.0669434 27.2336981,11.6559245 27.0693962,11.1627547 L31.4268302,11.1627547 L31.4268302,10.7517358 L26.9048302,10.7517358 C26.7405283,10.4228679 26.5759623,10.0118491 26.4938113,9.60056604 L31.4268302,9.60056604 L31.4268302,9.18954717 L26.3292453,9.18954717 C26.1649434,8.7785283 26.0006415,8.36724528 25.8360755,8.03837736 L31.4521887,8.03837736 L31.4521887,7.62735849 L25.5896226,7.62735849 C25.4250566,7.21633962 25.2607547,6.80532075 25.0961887,6.55860377 C25.0961887,6.55860377 25.0961887,6.47645283 25.0140377,6.47645283 L31.4521887,6.47645283 L31.4521887,6.06543396 L24.7673208,6.06543396 C24.2741509,5.32528302 23.6161509,5.24313208 23.2875472,5.24313208 C22.9586792,5.24313208 22.7119623,5.32528302 22.3830943,5.48984906 C22.4652453,5.32528302 22.5476604,5.16098113 22.6298113,4.91426415 L31.4907547,4.92139623 L31.4907547,4.51037736 L22.7941132,4.50324528 C22.7941132,4.33867925 22.7941132,4.2565283 22.7941132,4.09222642 C22.6298113,3.68120755 22.3830943,3.10562264 21.4786415,2.61218868 L33.2354717,2.61218868 L33.2354717,25.7148302 Z"/>
    <path fill="#BB242B" d="M6.72871698,4.27686792 C6.72871698,4.27686792 6.72871698,4.44143396 6.89328302,4.52358491 L9.44181132,7.1545283 C10.6751321,6.33222642 12.2370566,5.92120755 13.7992453,5.92120755 C15.4435849,5.92120755 17.0879245,6.41437736 18.3212453,7.31883019 L21.0343396,4.60573585 C21.1164906,4.52358491 21.1986415,4.35928302 21.1986415,4.35928302 C21.1986415,4.35928302 21.1164906,4.19471698 20.7876226,4.03041509 C19.636717,3.45483019 15.032566,1.81049057 14.7858491,1.72833962 C14.7036981,1.72833962 14.3748302,1.64618868 13.8813962,1.64618868 C13.3882264,1.64618868 13.1415094,1.72833962 13.0593585,1.72833962 C12.9772075,1.72833962 8.20875472,3.53698113 7.05758491,4.03041509 C6.81086792,4.11256604 6.72871698,4.19471698 6.72871698,4.27686792"/>
    <path fill="#BB242B" d="M9.39320755,7.13418868 C10.6262642,6.39430189 12.1063019,5.90086792 13.7503774,5.90086792 C15.394717,5.90086792 16.9569057,6.39430189 18.2723774,7.29875472 L20.9854717,4.58566038 C21.1500377,4.50324528 21.1500377,4.33867925 21.1500377,4.33867925 C21.1500377,4.2565283 21.0676226,4.17437736 20.7387547,4.01007547 C19.5878491,3.51664151 14.9836981,1.79015094 14.7369811,1.708 C14.6548302,1.708 14.3259623,1.62584906 13.8327925,1.62584906 C13.3393585,1.62584906 13.0929057,1.708 13.0104906,1.708 C13.0104906,1.79015094 8.24203774,3.51664151 7.09113208,3.92766038 C6.76226415,4.09222642 6.68011321,4.2565283 6.68011321,4.2565283 C6.68011321,4.2565283 6.76226415,4.42109434 6.84441509,4.50324528 L9.39320755,7.13418868"/>
    <path fill="#E5712A" d="M21.9720755,14.204717 C21.9720755,15.8490566 21.4786415,17.4109811 20.6566038,18.7264528 L23.1229811,21.1928302 C23.2051321,21.3573962 23.3696981,21.3573962 23.3696981,21.3573962 C23.3696981,21.3573962 23.534,21.2752453 23.698566,20.9463774 C24.1917358,19.7952075 25.9182264,15.1910566 26.0006415,14.9446038 C26.0827925,14.6157358 26.0827925,13.4648302 26.0006415,13.2181132 C25.9182264,13.2181132 24.1917358,8.44966038 23.698566,7.29875472 C23.534,6.96962264 23.3696981,6.8874717 23.3696981,6.8874717 C23.3696981,6.8874717 23.2051321,6.96962264 23.1229811,7.05177358 L20.5744528,9.60056604 C21.4786415,10.9160377 21.9720755,12.4779623 21.9720755,14.204717"/>
    <polyline fill="#BB242B" points="15.395 19.055 15.395 15.931 18.519 15.931 18.519 12.478 15.395 12.478 15.395 9.354 11.942 9.354 11.942 12.478 8.818 12.478 8.818 15.931 11.942 15.931 11.942 19.055 15.395 19.055"/>
    <path fill="#F0CD25" d="M5.44679245,14.122566 C5.44679245,12.3136604 6.02237736,10.6693208 7.00871698,9.35384906 L4.62449057,6.96962264 C4.54233962,6.80532075 4.37803774,6.80532075 4.37803774,6.80532075 C4.37803774,6.80532075 4.2134717,6.8874717 4.04916981,7.21633962 C3.55573585,8.36724528 1.82924528,12.9713962 1.74709434,13.2181132 C1.6649434,13.5469811 1.6649434,14.6978868 1.74709434,14.9446038 C1.74709434,15.0267547 3.47358491,19.7952075 4.04916981,20.9463774 C4.18415094,21.2160755 4.31649057,21.318566 4.31543396,21.3470943 C4.35743396,21.3249057 4.47498113,21.2604528 4.54233962,21.1928302 L6.92656604,18.8086038 C6.02237736,17.4931321 5.44679245,15.8490566 5.44679245,14.122566"/>
    <path fill="#EDA02F" d="M18.5188302,20.9463774 C17.1212075,21.850566 15.4768679,22.4261509 13.7503774,22.4261509 C12.0238868,22.4261509 10.4619623,21.932717 9.14649057,21.0285283 L6.76226415,23.4127547 C6.59769811,23.4949057 6.59769811,23.6594717 6.59769811,23.6594717 C6.59769811,23.6594717 6.68011321,23.8237736 6.92656604,23.9883396 C8.07773585,24.4815094 12.6816226,26.2082642 12.9283396,26.2904151 C13.0104906,26.2904151 13.3393585,26.372566 13.8327925,26.372566 C14.3259623,26.372566 14.5726792,26.2904151 14.7369811,26.2904151 C14.8193962,26.2904151 19.5878491,24.5636604 20.7387547,23.9883396 C21.0676226,23.8237736 21.1500377,23.6594717 21.1500377,23.6594717 C21.1500377,23.6594717 21.0676226,23.4949057 20.9854717,23.4127547 L18.5188302,20.9463774"/>
    <path fill="#0B0B09" d="M33.2354717,25.7148302 L20.6566038,25.7148302 C20.9854717,25.5502642 21.2321887,25.4681132 21.3964906,25.3859623 C22.3009434,24.9749434 22.6298113,24.3172075 22.7119623,23.9061887 C22.7119623,23.8237736 22.7119623,23.7416226 22.7119623,23.6594717 L31.2622642,23.6594717 L31.2622642,23.2481887 L22.7119623,23.2481887 C22.7119623,23.0838868 22.6298113,22.8371698 22.5476604,22.6728679 C22.7941132,22.8371698 23.1229811,22.9193208 23.3696981,22.9193208 C23.698566,22.9193208 24.3563019,22.8371698 24.8494717,22.097283 L31.3444151,22.097283 L31.3444151,21.6862642 L25.0961887,21.6862642 L25.1783396,21.6041132 C25.2607547,21.3573962 25.4250566,21.0285283 25.5896226,20.5350943 L31.2622642,20.5350943 L31.2622642,20.1240755 L25.7539245,20.1240755 C25.9182264,19.7952075 26.0827925,19.3841887 26.2470943,18.9731698 L31.3444151,18.9731698 L31.3444151,18.5621509 L26.4116604,18.5621509 C26.5759623,18.1511321 26.7405283,17.7398491 26.8226792,17.4109811 L31.3444151,17.4109811 L31.3444151,17.0821132 L26.9872453,17.0821132 C27.1515472,16.5889434 27.3158491,16.1779245 27.3982642,15.9312075 L31.3444151,15.9312075 L31.3444151,15.4380377 L27.562566,15.4380377 C27.644717,15.1910566 27.7271321,14.6978868 27.7271321,14.2868679 L31.3444151,14.2868679 L31.3444151,13.8758491 L27.7271321,13.8758491 C27.7271321,13.4648302 27.644717,12.9713962 27.562566,12.7249434 L31.3444151,12.7249434 L31.3444151,12.3136604 L27.4804151,12.3136604 C27.3982642,12.0669434 27.2336981,11.6559245 27.0693962,11.1627547 L31.4268302,11.1627547 L31.4268302,10.7517358 L26.9048302,10.7517358 C26.7405283,10.4228679 26.5759623,10.0118491 26.4938113,9.60056604 L31.4268302,9.60056604 L31.4268302,9.18954717 L26.3292453,9.18954717 C26.1649434,8.7785283 26.0006415,8.36724528 25.8360755,8.03837736 L31.4521887,8.03837736 L31.4521887,7.62735849 L25.5896226,7.62735849 C25.4250566,7.21633962 25.2607547,6.80532075 25.0961887,6.55860377 C25.0961887,6.55860377 25.0961887,6.47645283 25.0140377,6.47645283 L31.4521887,6.47645283 L31.4521887,6.06543396 L24.7673208,6.06543396 C24.2741509,5.32528302 23.6161509,5.24313208 23.2875472,5.24313208 C22.9586792,5.24313208 22.7119623,5.32528302 22.3830943,5.48984906 C22.4652453,5.32528302 22.5476604,5.16098113 22.6298113,4.91426415 L31.4907547,4.92139623 L31.4907547,4.51037736 L22.7941132,4.50324528 C22.7941132,4.33867925 22.7941132,4.2565283 22.7941132,4.09222642 C22.6298113,3.68120755 22.3830943,3.10562264 21.4786415,2.61218868 L33.2354717,2.61218868 L33.2354717,25.7148302 Z M8.81762264,15.9312075 L8.81762264,12.4782264 L11.9417358,12.4782264 L11.9417358,9.35384906 L15.394717,9.35384906 L15.394717,12.4782264 L18.5188302,12.4782264 L18.5188302,15.9312075 L15.394717,15.9312075 L15.394717,19.0553208 L11.9417358,19.0553208 L11.9417358,15.9312075 L8.81762264,15.9312075 Z M20.5744528,9.60056604 L23.1229811,7.05177358 C23.2051321,6.96962264 23.3696981,6.8874717 23.3696981,6.8874717 C23.3696981,6.8874717 23.534,6.96962264 23.698566,7.29875472 C24.1917358,8.44966038 25.9182264,13.2181132 26.0006415,13.2181132 C26.0827925,13.4648302 26.0827925,14.6157358 26.0006415,14.9446038 C25.9182264,15.1910566 24.1917358,19.7952075 23.698566,20.9463774 C23.534,21.2752453 23.3696981,21.3573962 23.3696981,21.3573962 C23.3696981,21.3573962 23.2051321,21.3573962 23.1229811,21.1928302 L20.6566038,18.7264528 C21.4786415,17.4109811 21.9720755,15.8490566 21.9720755,14.204717 C21.9720755,12.4779623 21.4786415,10.9160377 20.5744528,9.60056604 Z M13.8327925,1.62584906 C14.3259623,1.62584906 14.6548302,1.708 14.7369811,1.708 C14.9836981,1.79015094 19.5878491,3.51664151 20.7387547,4.01007547 C21.0676226,4.17437736 21.1500377,4.2565283 21.1500377,4.33867925 C21.1500377,4.33867925 21.1500377,4.50324528 20.9854717,4.58566038 L18.2723774,7.29875472 C16.9569057,6.39430189 15.394717,5.90086792 13.7503774,5.90086792 C12.1063019,5.90086792 10.6262642,6.39430189 9.39320755,7.13418868 L6.84441509,4.50324528 C6.76226415,4.42109434 6.68011321,4.2565283 6.68011321,4.2565283 C6.68011321,4.2565283 6.76226415,4.09222642 7.09113208,3.92766038 C8.24203774,3.51664151 13.0104906,1.79015094 13.0104906,1.708 C13.0929057,1.708 13.3393585,1.62584906 13.8327925,1.62584906 Z M4.31543396,21.3470943 C4.31649057,21.318566 4.18415094,21.2160755 4.04916981,20.9463774 C3.47358491,19.7952075 1.74709434,15.0267547 1.74709434,14.9446038 C1.6649434,14.6978868 1.6649434,13.5469811 1.74709434,13.2181132 C1.82924528,12.9713962 3.55573585,8.36724528 4.04916981,7.21633962 C4.2134717,6.8874717 4.37803774,6.80532075 4.37803774,6.80532075 C4.37803774,6.80532075 4.54233962,6.80532075 4.62449057,6.96962264 L7.00871698,9.35384906 C6.02237736,10.6693208 5.44679245,12.3136604 5.44679245,14.122566 C5.44679245,15.8490566 6.02237736,17.4931321 6.92656604,18.8086038 L4.54233962,21.1928302 C4.47498113,21.2604528 4.35743396,21.3249057 4.31543396,21.3470943 Z M12.9283396,26.2904151 C12.6816226,26.2082642 8.07773585,24.4815094 6.92656604,23.9883396 C6.68011321,23.8237736 6.59769811,23.6594717 6.59769811,23.6594717 C6.59769811,23.6594717 6.59769811,23.4949057 6.76226415,23.4127547 L9.14649057,21.0285283 C10.4619623,21.932717 12.0238868,22.4261509 13.7503774,22.4261509 C15.4768679,22.4261509 17.1212075,21.850566 18.5188302,20.9463774 L20.9854717,23.4127547 C21.0676226,23.4949057 21.1500377,23.6594717 21.1500377,23.6594717 C21.1500377,23.6594717 21.0676226,23.8237736 20.7387547,23.9883396 C19.5878491,24.5636604 14.8193962,26.2904151 14.7369811,26.2904151 C14.5726792,26.2904151 14.3259623,26.372566 13.8327925,26.372566 C13.3393585,26.372566 13.0104906,26.2904151 12.9283396,26.2904151 Z M18.0256604,1.21456604 C16.6280377,0.721396226 15.394717,0.228226415 15.312566,0.228226415 C14.8193962,0.0636603774 14.1613962,0.0636603774 13.8327925,0.0636603774 C13.4217736,0.0636603774 12.8461887,0.0636603774 12.4349057,0.228226415 C12.1884528,0.310377358 7.50215094,2.03686792 6.26883019,2.61218868 C5.36464151,3.0234717 5.11792453,3.59879245 5.03577358,4.09222642 C4.87120755,4.58566038 5.03577358,5.07883019 5.36464151,5.48984906 C5.03577358,5.32528302 4.70690566,5.24313208 4.37803774,5.24313208 C3.96675472,5.24313208 3.14471698,5.40769811 2.56913208,6.55860377 C1.99354717,7.79192453 0.267056604,12.4782264 0.18490566,12.7249434 C-0.0615471698,13.3002642 -0.0615471698,14.8624528 0.18490566,15.5201887 C0.267056604,15.7666415 1.99354717,20.4529434 2.56913208,21.6862642 C3.14471698,22.8371698 3.96675472,23.0017358 4.37803774,23.0017358 C4.62449057,23.0017358 4.87120755,22.9193208 5.11792453,22.8371698 C4.95362264,23.1660377 4.87120755,23.5773208 4.95362264,23.9061887 C5.03577358,24.3172075 5.36464151,24.9749434 6.26883019,25.3859623 C7.50215094,25.961283 12.1884528,27.6880377 12.4349057,27.7701887 C12.8461887,27.9347547 13.5860755,27.9347547 13.8327925,27.9347547 C14.2438113,27.9347547 14.8193962,27.9347547 15.2304151,27.7701887 C15.312566,27.7701887 16.0524528,27.4413208 16.9569057,27.1124528 L34.6330943,27.1124528 L34.6330943,1.21456604 L18.0256604,1.21456604 Z"/>
    <polyline fill="#BB242B" points="15.451 19.069 15.451 15.944 18.575 15.944 18.575 12.409 15.451 12.409 15.451 9.285 11.916 9.285 11.916 12.409 8.791 12.409 8.791 15.944 11.916 15.944 11.916 19.069 15.451 19.069"/>
    <path fill="#FFFFFF" d="M68.0143774,7.05784906 L69.2574717,7.05784906 C69.7408679,7.05784906 70.0861132,7.12679245 70.2932075,7.2649434 C70.5008302,7.40309434 70.5695094,7.54124528 70.5695094,7.74860377 C70.5695094,7.88675472 70.5008302,8.02490566 70.3624151,8.1630566 C70.2245283,8.3009434 70.0861132,8.37015094 69.8790189,8.37015094 C69.5335094,8.43909434 69.2574717,8.43909434 69.1193208,8.43909434 L68.0143774,8.43909434 L68.0143774,7.05784906 Z M68.0143774,9.82033962 L68.2904151,9.82033962 C68.566717,9.82033962 68.7740755,9.88954717 68.9811698,9.95849057 C69.1193208,10.0276981 69.3264151,10.2347925 69.464566,10.5110943 L70.9842264,12.6523019 L74.1611698,12.6523019 L72.7799245,10.6492453 C72.7109811,10.5803019 72.572566,10.3729434 72.3654717,10.2347925 C72.1583774,10.0276981 72.0202264,9.95849057 71.9510189,9.88954717 C71.8128679,9.82033962 71.5368302,9.75139623 71.1913208,9.61324528 C71.6057736,9.54430189 71.9510189,9.47509434 72.1583774,9.3369434 C72.5036226,9.12984906 72.8488679,8.92275472 73.0559623,8.64645283 C73.2635849,8.37015094 73.4014717,8.02490566 73.4014717,7.67939623 C73.4014717,7.2649434 73.2635849,6.85049057 72.987283,6.57418868 C72.7109811,6.29788679 72.3654717,6.02184906 71.8820755,5.95264151 C71.3984151,5.81449057 70.7771321,5.81449057 69.8790189,5.81449057 L65.2516226,5.81449057 L65.2516226,12.7904528 L68.0143774,12.7904528 L68.0143774,9.82033962 Z"/>
    <path fill="#FFFFFF" d="M73.8848679,11.0636981 C74.2303774,11.6163019 74.7829811,12.0307547 75.4734717,12.3070566 C76.1642264,12.5830943 76.9931321,12.7212453 78.0980755,12.7212453 C78.9961887,12.7212453 79.7558868,12.6523019 80.377434,12.5141509 C80.9989811,12.376 81.7586792,12.0307547 82.5873208,11.6163019 L82.5873208,8.64645283 L78.2362264,8.64645283 L78.2362264,10.0966415 L80.1011321,10.0966415 L80.1011321,10.7184528 C79.7558868,10.8566038 79.4103774,10.9947547 79.1340755,11.0636981 C78.8577736,11.1329057 78.5814717,11.2018491 78.2362264,11.2018491 C77.5457358,11.2018491 77.0620755,11.0636981 76.7168302,10.7184528 C76.3713208,10.3729434 76.1642264,9.88954717 76.1642264,9.12984906 C76.1642264,8.43909434 76.3713208,7.88675472 76.7168302,7.54124528 C77.0620755,7.196 77.5457358,7.05784906 78.167283,7.05784906 C78.5814717,7.05784906 78.9269811,7.12679245 79.203283,7.2649434 C79.4795849,7.40309434 79.6866792,7.61045283 79.7558868,7.88675472 L82.449434,7.54124528 C82.311283,7.05784906 82.0349811,6.71233962 81.6897358,6.43603774 C81.3442264,6.16 80.9297736,5.95264151 80.4463774,5.81449057 C79.9629811,5.67633962 79.203283,5.60739623 78.2362264,5.60739623 C77.2002264,5.60739623 76.3713208,5.74554717 75.7497736,5.95264151 C74.9900755,6.2289434 74.3685283,6.64339623 73.9540755,7.2649434 C73.5398868,7.81754717 73.3322642,8.50830189 73.3322642,9.268 C73.3322642,9.88954717 73.5398868,10.5110943 73.8848679,11.0636981"/>
    <polyline fill="#FFFFFF" points="90.876 11.064 86.041 11.064 86.041 9.682 90.392 9.682 90.392 8.232 86.041 8.232 86.041 7.127 90.738 7.127 90.738 5.676 83.209 5.676 83.209 12.652 90.876 12.652 90.876 11.064"/>
    <polyline fill="#FFFFFF" points="93.984 8.785 97.368 12.652 99.993 12.652 99.993 5.676 97.368 5.676 97.368 9.475 93.984 5.676 91.359 5.676 91.359 12.652 93.984 12.652 93.984 8.785"/>
    <path fill="#FFFFFF" d="M102.824453,12.376 C103.446,12.5830943 104.274906,12.7212453 105.241698,12.7212453 C106.070604,12.7212453 106.692151,12.6523019 107.244755,12.4449434 C107.797358,12.2378491 108.211811,12.0307547 108.557057,11.6163019 C108.902566,11.2710566 109.178604,10.7873962 109.317019,10.304 L106.899509,9.75139623 C106.761358,10.1658491 106.554264,10.5110943 106.277962,10.7873962 C106.00166,10.9947547 105.587208,11.1329057 105.034604,11.1329057 C104.482,11.1329057 104.067811,10.9947547 103.722302,10.7184528 C103.446,10.4421509 103.238906,9.88954717 103.238906,9.12984906 C103.238906,8.50830189 103.377057,8.02490566 103.653094,7.74860377 C103.998604,7.33415094 104.482,7.12679245 105.103811,7.12679245 C105.380113,7.12679245 105.656151,7.196 105.863509,7.2649434 C106.070604,7.33415094 106.277962,7.47230189 106.415849,7.67939623 C106.485057,7.74860377 106.623208,7.95569811 106.692151,8.1630566 L109.178604,7.74860377 C108.833358,6.98864151 108.349962,6.43603774 107.728151,6.09079245 C107.106868,5.74554717 106.208755,5.53845283 105.034604,5.53845283 C103.584415,5.53845283 102.479208,5.81449057 101.650302,6.43603774 C100.82166,7.05784906 100.476151,7.95569811 100.476151,9.06064151 C100.476151,9.95849057 100.683245,10.6492453 101.166642,11.2018491 C101.650302,11.8233962 102.202906,12.1689057 102.824453,12.376"/>
    <polyline fill="#FFFFFF" points="112.287 12.652 115.119 12.652 115.119 9.682 118.641 5.676 115.533 5.676 113.737 8.025 111.872 5.676 108.764 5.676 112.287 9.682 112.287 12.652"/>
    <polyline fill="#FFFFFF" points="64.63 11.064 59.795 11.064 59.795 9.682 64.146 9.682 64.146 8.232 59.795 8.232 59.795 7.127 64.492 7.127 64.492 5.676 57.032 5.676 57.032 12.652 64.63 12.652 64.63 11.064"/>
    <polyline fill="#FFFFFF" points="48.813 7.334 50.54 12.652 52.612 12.652 54.408 7.334 54.408 12.652 56.687 12.652 56.687 5.676 53.026 5.676 51.576 9.89 50.195 5.676 46.534 5.676 46.534 12.652 48.813 12.652 48.813 7.334"/>
    <polyline fill="#FFFFFF" points="45.705 11.064 40.87 11.064 40.87 9.682 45.222 9.682 45.222 8.232 40.87 8.232 40.87 7.127 45.567 7.127 45.567 5.676 38.039 5.676 38.039 12.652 45.705 12.652 45.705 11.064"/>
    <path fill="#FFFFFF" d="M43.2187925,17.7633585 C43.0806415,17.9015094 42.9424906,17.9704528 42.7353962,17.9704528 C42.3898868,18.0396604 42.1135849,18.0396604 41.975434,18.0396604 L40.8015472,18.0396604 L40.8015472,16.6581509 L42.0446415,16.6581509 C42.5280377,16.6581509 42.8735472,16.7273585 43.0806415,16.8655094 C43.288,17.0036604 43.3569434,17.1418113 43.3569434,17.3489057 C43.4261509,17.4870566 43.3569434,17.6252075 43.2187925,17.7633585 Z M46.8101887,22.0455094 L45.5670943,20.1808679 C45.4978868,20.1116604 45.36,19.904566 45.1526415,19.7664151 C44.9455472,19.5590566 44.8073962,19.4901132 44.7381887,19.4209057 C44.6003019,19.3519623 44.324,19.2827547 43.9784906,19.1446038 C44.3929434,19.0756604 44.7381887,19.0064528 44.9455472,18.8683019 C45.2907925,18.6612075 45.6363019,18.4541132 45.8433962,18.1778113 C46.0504906,17.9015094 46.1889057,17.5562642 46.1889057,17.2107547 C46.1889057,16.7963019 46.0504906,16.3818491 45.7741887,16.1055472 C45.4978868,15.8292453 45.1526415,15.5532075 44.6692453,15.484 C44.1858491,15.3458491 43.5643019,15.3458491 42.6661887,15.3458491 L38.0387925,15.3458491 L38.0387925,22.3218113 L40.8704906,22.3218113 L40.8704906,19.4901132 L41.0775849,19.4901132 C41.3538868,19.4901132 41.5612453,19.5590566 41.7683396,19.6282642 C41.9064906,19.6972075 42.1135849,19.904566 42.2517358,20.1808679 L43.7713962,22.3218113 L46.9486038,22.3218113 L46.8101887,22.3218113 L46.8101887,22.0455094 Z"/>
    <polyline fill="#FFFFFF" points="49.642 19.283 53.993 19.283 53.993 17.833 49.642 17.833 49.642 16.727 54.339 16.727 54.339 15.208 46.81 15.208 46.81 22.046 46.949 22.184 54.477 22.184 54.477 20.595 49.642 20.595 49.642 19.283"/>
    <path fill="#FFFFFF" d="M59.5879623 17.9704528C59.3806038 18.1086038 58.9664151 18.1778113 58.4830189 18.1778113L57.792 18.1778113 57.792 16.6581509 58.6209057 16.6581509C59.1735094 16.6581509 59.5187547 16.7273585 59.6569057 16.8655094 59.8642642 17.0036604 59.9332075 17.2107547 59.9332075 17.4181132 59.8642642 17.6944151 59.7950566 17.832566 59.5879623 17.9704528zM61.8670566 15.8292453C61.3836604 15.484 60.6239623 15.2769057 59.5879623 15.2769057L54.960566 15.2769057 54.960566 22.2526038 57.792 22.2526038 57.792 19.6972075 59.3116604 19.6972075C60.4168679 19.6972075 61.2457736 19.4901132 61.7981132 19.0756604 62.350717 18.6612075 62.6267547 18.1086038 62.6267547 17.4181132 62.6267547 16.7273585 62.350717 16.1747547 61.8670566 15.8292453zM68.7740755 20.2498113C68.428566 20.5261132 67.9451698 20.7332075 67.392566 20.7332075 66.8399623 20.7332075 66.356566 20.5950566 66.0113208 20.2498113 65.6658113 19.9735094 65.5276604 19.4209057 65.5276604 18.7301509 65.5276604 18.0396604 65.6658113 17.4870566 66.0113208 17.2107547 66.356566 16.9344528 66.8399623 16.7273585 67.392566 16.7273585 68.0143774 16.7273585 68.428566 16.8655094 68.7740755 17.2107547 69.1193208 17.4870566 69.2574717 17.9704528 69.2574717 18.6612075 69.3264151 19.4209057 69.1193208 19.9735094 68.7740755 20.2498113zM70.8458113 16.0366038C70.0171698 15.4150566 68.8430189 15.0698113 67.392566 15.0698113 65.9421132 15.0698113 64.7679623 15.4150566 63.9393208 16.0366038 63.1104151 16.6581509 62.6959623 17.5562642 62.6959623 18.6612075 62.6959623 19.4901132 62.9030566 20.1808679 63.3175094 20.6642642 63.7319623 21.2168679 64.2843019 21.6310566 64.9753208 21.8384151 65.6658113 22.1144528 66.494717 22.1836604 67.530717 22.1836604 68.566717 22.1836604 69.3956226 22.0455094 70.0171698 21.7692075 70.7079245 21.4929057 71.1913208 21.078717 71.5368302 20.5261132 71.8820755 19.9735094 72.0891698 19.3519623 72.0891698 18.5230566 72.0891698 17.5562642 71.674717 16.6581509 70.8458113 16.0366038zM77.8217736 17.7633585C77.6836226 17.9015094 77.5457358 17.9704528 77.3383774 17.9704528 76.9931321 18.0396604 76.7168302 18.0396604 76.5784151 18.0396604L75.4045283 18.0396604 75.4045283 16.6581509 76.6476226 16.6581509C77.1310189 16.6581509 77.4765283 16.7273585 77.6836226 16.8655094 77.8909811 17.0036604 77.9599245 17.1418113 77.9599245 17.3489057 77.9599245 17.4870566 77.9599245 17.6252075 77.8217736 17.7633585zM80.6537358 16.3818491C80.5845283 16.2436981 80.5155849 16.1055472 80.377434 16.0366038 80.1011321 15.7603019 79.7558868 15.484 79.2724906 15.4150566 78.7888302 15.2769057 78.167283 15.2769057 77.269434 15.2769057L72.6417736 15.2769057 72.6417736 22.2526038 75.4734717 22.2526038 75.4734717 19.4209057 75.7497736 19.4209057C76.0260755 19.4209057 76.233434 19.4901132 76.4405283 19.5590566 76.5784151 19.6282642 76.7860377 19.8353585 76.9239245 20.1116604L78.4435849 22.2526038 81.6205283 22.2526038 80.239283 20.2498113C80.1700755 20.1808679 80.0321887 19.9735094 79.8248302 19.8353585 79.6174717 19.6282642 79.4795849 19.5590566 79.4103774 19.4901132 79.2724906 19.4209057 78.9961887 19.3519623 78.6506792 19.2138113 79.0651321 19.1446038 79.4103774 19.0756604 79.6174717 18.9375094 79.9629811 18.7301509 80.3084906 18.5230566 80.5155849 18.2467547 80.7226792 17.9704528 80.8608302 17.6252075 80.8608302 17.2799623 80.8608302 17.2107547 80.8608302 17.1418113 80.8608302 17.0726038L80.7226792 17.0726038 80.7226792 16.3818491 80.6537358 16.3818491z"/>
    <path fill="#FFFFFF" d="M80.6537358,16.3818491 C80.7226792,16.52 80.7918868,16.7273585 80.7918868,16.9344528 L83.485434,16.9344528 L83.485434,22.1836604 L86.2481887,22.1836604 L86.2481887,16.9344528 L89.0801509,16.9344528 L89.0801509,15.2076981 L80.5845283,15.2076981 L80.5845283,16.3818491 L80.6537358,16.3818491"/>
    <polygon fill="#FFFFFF" points="89.701 22.184 92.533 22.184 92.533 15.208 89.701 15.208"/>
    <polyline fill="#FFFFFF" points="99.302 19.076 95.918 15.208 93.293 15.208 93.293 22.184 95.918 22.184 95.918 18.385 99.302 22.184 101.996 22.184 101.996 15.208 99.302 15.208 99.302 19.076"/>
    <path fill="#FFFFFF" d="M107.38317 19.6972075L109.247811 19.6972075 109.247811 20.3190189C108.902566 20.4571698 108.557057 20.5950566 108.280755 20.6642642 108.004453 20.7332075 107.728151 20.8024151 107.38317 20.8024151 106.692151 20.8024151 106.208755 20.6642642 105.863509 20.3190189 105.518 19.9735094 105.310906 19.4901132 105.310906 18.7301509 105.310906 18.0396604 105.518 17.4870566 105.863509 17.1418113 106.208755 16.7963019 106.692151 16.6581509 107.313962 16.6581509 107.728151 16.6581509 108.07366 16.7273585 108.349962 16.8655094 108.626264 17.0036604 108.833358 17.2107547 108.902566 17.4870566L111.596113 17.1418113C111.457962 16.6581509 111.18166 16.3129057 110.836415 16.0366038 110.490906 15.7603019 110.076717 15.5532075 109.593321 15.4150566 109.10966 15.2769057 108.349962 15.2076981 107.38317 15.2076981 106.346906 15.2076981 105.518 15.3458491 104.896717 15.5532075 104.136755 15.8292453 103.515208 16.2436981 103.100755 16.8655094 102.686302 17.4181132 102.479208 18.1086038 102.479208 18.8683019 102.479208 19.5590566 102.686302 20.2498113 103.031811 20.8024151 103.377057 21.3547547 103.929396 21.7692075 104.620415 22.0455094 105.310906 22.3218113 106.139811 22.4599623 107.244755 22.4599623 108.142868 22.4599623 108.902566 22.3907547 109.524113 22.2526038 110.145925 22.1144528 110.905623 21.7692075 111.734264 21.3547547L111.734264 18.3849057 107.38317 18.3849057 107.38317 19.6972075M113.571698 16.3966415L113.723849 16.3966415C113.901358 16.3966415 114.044792 16.3374717 114.044792 16.1937736 114.044792 16.0669811 113.952075 15.982717 113.749208 15.982717 113.664679 15.982717 113.605245 15.9909057 113.571698 15.9996226L113.571698 16.3966415zM113.563245 17.1743019L113.242038 17.1743019 113.242038 15.7880377C113.369094 15.7711321 113.546604 15.7460377 113.774566 15.7460377 114.036604 15.7460377 114.154679 15.7880377 114.247925 15.8559245 114.332189 15.9148302 114.391623 16.0165283 114.391623 16.1515094 114.391623 16.320566 114.264566 16.4304528 114.104226 16.4811698L114.104226 16.4980755C114.239472 16.5403396 114.307094 16.6502264 114.349358 16.8361887 114.391623 17.0475094 114.425434 17.1235849 114.450792 17.1743019L114.112415 17.1743019C114.070415 17.1235849 114.044792 17.0052453 114.002528 16.8361887 113.97717 16.6924906 113.892642 16.6248679 113.715132 16.6248679L113.563245 16.6248679 113.563245 17.1743019zM113.774566 15.3487547C113.174415 15.3487547 112.709774 15.8472075 112.709774 16.4558113 112.709774 17.0728679 113.174415 17.5631321 113.791472 17.5631321 114.391623 17.5715849 114.847811 17.0728679 114.847811 16.4642642 114.847811 15.8472075 114.391623 15.3487547 113.783019 15.3487547L113.774566 15.3487547zM113.791472 15.0698113C114.577585 15.0698113 115.203094 15.6781509 115.203094 16.4558113 115.203094 17.2334717 114.577585 17.8505283 113.783019 17.8505283 112.988453 17.8505283 112.354755 17.2334717 112.354755 16.4558113 112.354755 15.6781509 112.988453 15.0698113 113.783019 15.0698113L113.791472 15.0698113z"/>
  </g>
</svg>
