<svg xmlns="http://www.w3.org/2000/svg" 
  xmlns:xlink="http://www.w3.org/1999/xlink" width="24" height="24" viewBox="0 0 24 24">
  <defs>
    <path id="home-a" d="M18.0003177,10.2320083 L11.9952086,4.22689918 L5.99927452,10.2228332 C5.99975612,10.2318277 6,10.2408854 6,10.25 L6,20 L9,20 L9,14.5 C9,14.2238576 9.22385763,14 9.5,14 L14.5,14 C14.7761424,14 15,14.2238576 15,14.5 L15,20 L18,20 L18,10.25 C18,10.2439773 18.0001065,10.2379795 18.0003177,10.2320083 Z M19,11.2316906 L19,20.5 C19,20.7761424 18.7761424,21 18.5,21 L14.5,21 C14.2238576,21 14,20.7761424 14,20.5 L14,15 L10,15 L10,20.5 C10,20.7761424 9.77614237,21 9.5,21 L5.5,21 C5.22385763,21 5,20.7761424 5,20.5 L5,11.2221078 L3.81181847,12.4102893 C3.61655632,12.6055514 3.29997384,12.6055514 3.10471169,12.4102893 L3.10355339,12.409131 C2.90829124,12.2138688 2.90829124,11.8972863 3.10355339,11.7020242 L11.6420243,3.16355333 C11.7568278,3.04874976 11.9135695,3.00144447 12.0629346,3.02163748 C12.1697091,3.0347888 12.2730536,3.08234765 12.35502,3.16431404 L14,4.80929405 L14,3.5 C14,3.22385763 14.2238576,3 14.5,3 L17.5,3 C17.7761424,3 18,3.22385763 18,3.5 L18,8.80929405 L20.8553592,11.6646533 C21.0506214,11.8599154 21.0506214,12.1764979 20.8553592,12.3717601 L20.8512677,12.3758516 C20.6560056,12.5711137 20.3394231,12.5711137 20.144161,12.3758516 L19,11.2316906 Z M15,5.80929405 L17,7.80929405 L17,4 L15,4 L15,5.80929405 Z"/>
  </defs>
  <g fill="none" fill-rule="evenodd">
    <use fill="#000000" xlink:href="#home-a"/>
  </g>
</svg>
