<svg xmlns="http://www.w3.org/2000/svg" 
  xmlns:xlink="http://www.w3.org/1999/xlink" width="24" height="24" viewBox="0 0 24 24">
  <defs>
    <path id="hydrants-a" d="M6.87340265,6.00394189 C7.49510176,4.40835553 8.84021335,3.17451538 10.505749,2.70540986 C10.501943,2.66183737 10.5,2.61773096 10.5,2.57317073 L10.5,2.5 C10.5,1.67157288 11.1715729,1 12,1 C12.8284271,1 13.5,1.67157288 13.5,2.5 L13.5,2.57317073 C13.5,2.61773096 13.498057,2.66183737 13.494251,2.70540986 C15.1597866,3.17451538 16.5048982,4.40835553 17.1265973,6.00394189 C18.1721844,6.0692519 19,6.93795261 19,8 C19,8.93191971 18.3626136,9.71496986 17.5,9.93699126 L17.5,11 L19,11 C19.5522847,11 20,11.4477153 20,12 L20,16 C20,16.5522847 19.5522847,17 19,17 L17.5,17 L17.5,18 C18.3284271,18 19,18.6715729 19,19.5 L19,22 L5,22 L5,19.5 C5,18.6715729 5.67157288,18 6.5,18 L6.5,17 L5,17 C4.44771525,17 4,16.5522847 4,16 L4,12 C4,11.4477153 4.44771525,11 5,11 L6.5,11 L6.5,9.93699126 C5.63738639,9.71496986 5,8.93191971 5,8 C5,6.93795261 5.82781556,6.0692519 6.87340265,6.00394189 Z M7.5,10 L7.5,18 L16.5,18 L16.5,10 L7.5,10 Z M7.96775982,6 L16.0322402,6 C15.2958889,4.51828152 13.7668606,3.5 12,3.5 C10.2331394,3.5 8.70411112,4.51828152 7.96775982,6 Z M12.5,2.52242151 L12.5,2.5 C12.5,2.22385763 12.2761424,2 12,2 C11.7238576,2 11.5,2.22385763 11.5,2.5 L11.5,2.52242151 C11.664681,2.50758131 11.8314552,2.5 12,2.5 C12.1685448,2.5 12.335319,2.50758131 12.5,2.52242151 Z M6.5,12 L5,12 L5,16 L6.5,16 L6.5,12 Z M17.5,16 L19,16 L19,12 L17.5,12 L17.5,16 Z M6.5,19 C6.22385763,19 6,19.2238576 6,19.5 L6,21 L18,21 L18,19.5 C18,19.2238576 17.7761424,19 17.5,19 L6.5,19 Z M7,7 C6.44771525,7 6,7.44771525 6,8 C6,8.55228475 6.44771525,9 7,9 L17,9 C17.5522847,9 18,8.55228475 18,8 C18,7.44771525 17.5522847,7 17,7 L7,7 Z M12,16.5 C10.6192881,16.5 9.5,15.3807119 9.5,14 C9.5,12.6192881 10.6192881,11.5 12,11.5 C13.3807119,11.5 14.5,12.6192881 14.5,14 C14.5,15.3807119 13.3807119,16.5 12,16.5 Z M12,15.5 C12.8284271,15.5 13.5,14.8284271 13.5,14 C13.5,13.1715729 12.8284271,12.5 12,12.5 C11.1715729,12.5 10.5,13.1715729 10.5,14 C10.5,14.8284271 11.1715729,15.5 12,15.5 Z"/>
  </defs>
  <g fill="none" fill-rule="evenodd">
    <use fill="#000000" fill-rule="nonzero" xlink:href="#hydrants-a"/>
  </g>
</svg>
