<svg xmlns="http://www.w3.org/2000/svg" xmlns:xlink="http://www.w3.org/1999/xlink" width="24" height="24" viewBox="0 0 24 24">
  <defs>
    <path id="incidents-a" d="M4,21 L20,21 L20,19.5 C20,18.9477153 19.5522847,18.5 19,18.5 L5,18.5 C4.44771525,18.5 4,18.9477153 4,19.5 L4,21 Z M11.5,15.4585208 C10.0811433,15.2204817 9,13.9864981 9,12.5 C9,10.8431458 10.3431458,9.5 12,9.5 C13.6568542,9.5 15,10.8431458 15,12.5 C15,13.9864981 13.9188567,15.2204817 12.5,15.4585208 L12.5,17.5 L11.5,17.5 L11.5,15.4585208 Z M19,17.5 C20.1045695,17.5 21,18.3954305 21,19.5 L21,22 L3,22 L3,19.5 C3,18.3954305 3.8954305,17.5 5,17.5 L5,13 C5,9.13400675 8.13400675,6 12,6 C15.8659932,6 19,9.13400675 19,13 L19,17.5 Z M6,17.5 L18,17.5 L18,13 C18,9.6862915 15.3137085,7 12,7 C8.6862915,7 6,9.6862915 6,13 L6,17.5 Z M12,14.5 C13.1045695,14.5 14,13.6045695 14,12.5 C14,11.3954305 13.1045695,10.5 12,10.5 C10.8954305,10.5 10,11.3954305 10,12.5 C10,13.6045695 10.8954305,14.5 12,14.5 Z M12,2 C12.2761424,2 12.5,2.22385763 12.5,2.5 L12.5,4.5 C12.5,4.77614237 12.2761424,5 12,5 C11.7238576,5 11.5,4.77614237 11.5,4.5 L11.5,2.5 C11.5,2.22385763 11.7238576,2 12,2 Z M20.5,12 L22.5,12 C22.7761424,12 23,12.2238576 23,12.5 C23,12.7761424 22.7761424,13 22.5,13 L20.5,13 C20.2238576,13 20,12.7761424 20,12.5 C20,12.2238576 20.2238576,12 20.5,12 Z M19.1112159,7.8169873 L20.8432667,6.8169873 C21.0824131,6.67891611 21.3882083,6.76085369 21.5262794,7 C21.6643506,7.23914631 21.5824131,7.54494151 21.3432667,7.6830127 L19.6112159,8.6830127 C19.3720696,8.82108389 19.0662744,8.73914631 18.9282032,8.5 C18.790132,8.26085369 18.8720696,7.95505849 19.1112159,7.8169873 Z M15.8169873,4.88878407 L16.8169873,3.15673326 C16.9550585,2.91758695 17.2608537,2.83564937 17.5,2.97372056 C17.7391463,3.11179175 17.8210839,3.41758695 17.6830127,3.65673326 L16.6830127,5.38878407 C16.5449415,5.62793038 16.2391463,5.70986796 16,5.57179677 C15.7608537,5.43372558 15.6789161,5.12793038 15.8169873,4.88878407 Z M1.5,12 L3.5,12 C3.77614237,12 4,12.2238576 4,12.5 C4,12.7761424 3.77614237,13 3.5,13 L1.5,13 C1.22385763,13 1,12.7761424 1,12.5 C1,12.2238576 1.22385763,12 1.5,12 Z M7.1830127,3.15673326 L8.1830127,4.88878407 C8.32108389,5.12793038 8.23914631,5.43372558 8,5.57179677 C7.76085369,5.70986796 7.45505849,5.62793038 7.3169873,5.38878407 L6.3169873,3.65673326 C6.17891611,3.41758695 6.26085369,3.11179175 6.5,2.97372056 C6.73914631,2.83564937 7.04494151,2.91758695 7.1830127,3.15673326 Z M3.15673326,6.8169873 L4.88878407,7.8169873 C5.12793038,7.95505849 5.20986796,8.26085369 5.07179677,8.5 C4.93372558,8.73914631 4.62793038,8.82108389 4.38878407,8.6830127 L2.65673326,7.6830127 C2.41758695,7.54494151 2.33564937,7.23914631 2.47372056,7 C2.61179175,6.76085369 2.91758695,6.67891611 3.15673326,6.8169873 Z"/>
  </defs>
  <g fill="none" fill-rule="evenodd">
    <use fill="#FFFFFF" fill-rule="nonzero" xlink:href="#incidents-a"/>
  </g>
</svg>
