<svg xmlns="http://www.w3.org/2000/svg" 
  xmlns:xlink="http://www.w3.org/1999/xlink" width="24" height="24" viewBox="0 0 24 24">
  <defs>
    <path id="inventory-a" d="M20.74776,15.8252811 L22.1482891,15.1506215 L18.5,13.1734955 L17.1432808,13.9087455 L20.74776,15.8252811 Z M20.1889778,16.0944564 L16.6158376,14.194584 L14.8517109,15.1506215 L18.5,16.9080668 L20.1889778,16.0944564 Z M23,15.8503156 L19,17.7771863 L19,22.5550313 L23,20.379775 L23,15.8503156 Z M14,15.8503156 L14,20.379775 L18,22.5550313 L18,17.7771863 L14,15.8503156 Z M19,12.2720281 L23.840471,14.9055163 C23.9387955,14.9590103 24,15.0619854 24,15.1739198 L24,20.6109651 C24,20.8348749 23.8775466,21.0408558 23.6808418,21.1478267 L18.7919529,23.8064733 C18.6099064,23.9054727 18.3900936,23.9054727 18.2080471,23.8064733 L13.3191582,21.1478267 C13.24929,21.1098313 13.1887894,21.0593446 13.1398167,21 L4.06666667,21 C3.47756293,21 3,20.5522847 3,20 L3,3 C3,2.44771525 3.47756293,2 4.06666667,2 L17.9333333,2 C18.5224371,2 19,2.44771525 19,3 L19,12.2720281 Z M18,12.2720281 L18,3 L4,3 L4,20 L13,20 L13,15.1739198 C13,15.0619854 13.0612045,14.9590103 13.159529,14.9055163 L18,12.2720281 Z M6.5,12 L10.5,12 C10.7761424,12 11,12.2238576 11,12.5 C11,12.7761424 10.7761424,13 10.5,13 L6.5,13 C6.22385763,13 6,12.7761424 6,12.5 C6,12.2238576 6.22385763,12 6.5,12 Z M6.5,9 L15.5,9 C15.7761424,9 16,9.22385763 16,9.5 C16,9.77614237 15.7761424,10 15.5,10 L6.5,10 C6.22385763,10 6,9.77614237 6,9.5 C6,9.22385763 6.22385763,9 6.5,9 Z M6.5,6 L15.5,6 C15.7761424,6 16,6.22385763 16,6.5 C16,6.77614237 15.7761424,7 15.5,7 L6.5,7 C6.22385763,7 6,6.77614237 6,6.5 C6,6.22385763 6.22385763,6 6.5,6 Z"/>
  </defs>
  <g fill="none" fill-rule="evenodd">
    <use fill="#FFFFFF" xlink:href="#inventory-a"/>
  </g>
</svg>
