<svg xmlns="http://www.w3.org/2000/svg" 
  xmlns:xlink="http://www.w3.org/1999/xlink" width="24" height="24" viewBox="0 0 24 24">
  <defs>
    <path id="invoicing-a" d="M20.9812811,20.9000008 L18.4869815,22.9995445 L16.3215929,21.1780709 L14.1582399,23 L11.9964136,21.1785264 L9.83509625,23 L7.67326996,21.1785264 L5.51093477,23 L3.01865167,20.9000008 L3,20.9000008 L3,3 C3,2.44771525 3.44771525,2 4,2 L20,2 C20.5522847,2 21,2.44771525 21,3 L21,20.9000008 L20.9812811,20.9000008 Z M4,20.4754874 L5.51093477,21.7492457 L7.67326996,19.9268612 L9.83509625,21.7492457 L11.9964136,19.9268612 L14.1582399,21.7492457 L16.3215929,19.9273166 L18.4869815,21.7492457 L20,20.4758751 L20,18.8467966 L20,3.05292479 L4,3.05292479 L4,18.8467966 L4,20.4754874 Z M17,5.5 C16.7238576,5.5 16.5,5.27614237 16.5,5 C16.5,4.72385763 16.7238576,4.5 17,4.5 C17.2761424,4.5 17.5,4.72385763 17.5,5 C17.5,5.27614237 17.2761424,5.5 17,5.5 Z M13.6666667,5.5 C13.3905243,5.5 13.1666667,5.27614237 13.1666667,5 C13.1666667,4.72385763 13.3905243,4.5 13.6666667,4.5 C13.942809,4.5 14.1666667,4.72385763 14.1666667,5 C14.1666667,5.27614237 13.942809,5.5 13.6666667,5.5 Z M10.3333333,5.5 C10.057191,5.5 9.83333333,5.27614237 9.83333333,5 C9.83333333,4.72385763 10.057191,4.5 10.3333333,4.5 C10.6094757,4.5 10.8333333,4.72385763 10.8333333,5 C10.8333333,5.27614237 10.6094757,5.5 10.3333333,5.5 Z M7,5.5 C6.72385763,5.5 6.5,5.27614237 6.5,5 C6.5,4.72385763 6.72385763,4.5 7,4.5 C7.27614237,4.5 7.5,4.72385763 7.5,5 C7.5,5.27614237 7.27614237,5.5 7,5.5 Z M14.5,9 L17,9 C17.2761424,9 17.5,9.22385763 17.5,9.5 C17.5,9.77614237 17.2761424,10 17,10 L14.5,10 C14.2238576,10 14,9.77614237 14,9.5 C14,9.22385763 14.2238576,9 14.5,9 Z M14.5,12 L17,12 C17.2761424,12 17.5,12.2238576 17.5,12.5 C17.5,12.7761424 17.2761424,13 17,13 L14.5,13 C14.2238576,13 14,12.7761424 14,12.5 C14,12.2238576 14.2238576,12 14.5,12 Z M14.5,15 L17,15 C17.2761424,15 17.5,15.2238576 17.5,15.5 C17.5,15.7761424 17.2761424,16 17,16 L14.5,16 C14.2238576,16 14,15.7761424 14,15.5 C14,15.2238576 14.2238576,15 14.5,15 Z M11.0068359,14.7462605 C11.0068359,14.4087969 10.8913586,14.1245248 10.6604004,13.8934356 C10.4294422,13.6623464 10.0400418,13.4532688 9.4921875,13.2661966 C8.72948837,13.0277713 8.17358573,12.716906 7.82446289,12.3335914 C7.47534005,11.9502768 7.30078125,11.4633461 7.30078125,10.8727849 C7.30078125,10.2712194 7.47175936,9.77786968 7.8137207,9.39272104 C8.15568205,9.00757239 8.62564805,8.77832068 9.22363281,8.70495903 L9.22363281,7.5 L10.0239258,7.5 L10.0239258,8.71046113 C10.6254913,8.79482702 11.0936669,9.05342295 11.4284668,9.48625667 C11.7632666,9.91909039 11.9306641,10.5114768 11.9306641,11.2634337 L10.9423828,11.2634337 C10.9423828,10.7462341 10.8224296,10.335415 10.5825195,10.0309642 C10.3426095,9.72651334 10.0185567,9.57429021 9.61035156,9.57429021 C9.18424266,9.57429021 8.85839957,9.68708205 8.6328125,9.91266911 C8.40722543,10.1382562 8.29443359,10.4527895 8.29443359,10.8562786 C8.29443359,11.230423 8.41349165,11.5284502 8.65161133,11.7503692 C8.88973101,11.9722882 9.28181693,12.1740297 9.82788086,12.3555998 C10.3739448,12.5371698 10.8000473,12.7370773 11.1062012,12.9553282 C11.412355,13.1735791 11.6379387,13.42759 11.782959,13.7173685 C11.9279792,14.007147 12.0004883,14.3464396 12.0004883,14.7352563 C12.0004883,15.3551622 11.8187681,15.8540139 11.4553223,16.2318264 C11.0918764,16.6096389 10.5825228,16.8333886 9.92724609,16.9030821 L9.92724609,17.9539825 L9.13232422,17.9539825 L9.13232422,16.9030821 C8.46630526,16.8407247 7.94441921,16.5977179 7.56665039,16.1740544 C7.18888157,15.7503909 7,15.1754276 7,14.4491473 L7.99365234,14.4491473 C7.99365234,14.9590107 8.12434765,15.3514897 8.38574219,15.6265958 C8.64713672,15.901702 9.01773849,16.039253 9.49755859,16.039253 C9.96663646,16.039253 10.3354479,15.9237102 10.6040039,15.692621 C10.8725599,15.4615318 11.0068359,15.1460815 11.0068359,14.7462605 Z"/>
  </defs>
  <g fill="none" fill-rule="evenodd">
    <use fill="#000000" fill-rule="nonzero" xlink:href="#invoicing-a"/>
  </g>
</svg>
