<svg xmlns="http://www.w3.org/2000/svg" 
  xmlns:xlink="http://www.w3.org/1999/xlink" width="24" height="24" viewBox="0 0 24 24">
  <defs>
    <path id="message-center-a" d="M3.67907672,18 L20.3214233,18 L14.6639893,11.9917241 L12.3139137,13.8893149 C12.129918,14.0378839 11.8669969,14.0372269 11.683746,13.8877401 L9.34649031,11.9811256 L3.67907672,18 Z M3,17.2624656 L8.56964939,11.3474182 L3,6.80398099 L3,17.2624656 Z M21,17.2619346 L21,6.87565234 L15.444275,11.3616751 L21,17.2619346 Z M3.59643443,6 L12.0014092,12.8563517 L20.4926735,6 L3.59643443,6 Z M3,5 L21,5 C21.5614772,5 22,5.47506633 22,6.04166667 L22,17.9583333 C22,18.5249337 21.5614772,19 21,19 L3,19 C2.43852277,19 2,18.5249337 2,17.9583333 L2,6.04166667 C2,5.47506633 2.43852277,5 3,5 Z"/>
  </defs>
  <g fill="none" fill-rule="evenodd">
    <use fill="#FFFFFF" fill-rule="nonzero" xlink:href="#message-center-a"/>
  </g>
</svg>
