<svg xmlns="http://www.w3.org/2000/svg" 
  xmlns:xlink="http://www.w3.org/1999/xlink" width="24" height="24" viewBox="0 0 24 24">
  <defs>
    <path id="occupancies-a" d="M6.5,5 C5.94771525,5 5.5,4.55228475 5.5,4 L5.5,3 C5.5,2.44771525 5.94771525,2 6.5,2 L17.5,2 C18.0522847,2 18.5,2.44771525 18.5,3 L18.5,4 C18.5,4.55228475 18.0522847,5 17.5,5 L17.5,8 L22,8 C22.5522847,8 23,8.44771525 23,9 L23,18 L23,21 C23,21.5522847 22.5522847,22 22,22 L2,22 C1.44771525,22 1,21.5522847 1,21 L1,18 L1,9 C1,8.44771525 1.44771525,8 2,8 L6.5,8 L6.5,5 Z M7.5,5 L7.5,18 L16.5,18 L16.5,9 L16.5,5 L7.5,5 Z M2,18 L6.5,18 L6.5,9 L2,9 L2,18 Z M22,18 L22,9 L17.5,9 L17.5,18 L22,18 Z M2,19 L2,21 L22,21 L22,19 L2,19 Z M6.5,3 L6.5,4 L17.5,4 L17.5,3 L6.5,3 Z M9.5,7.5 L11,7.5 L11,9 L9.5,9 L9.5,7.5 Z M13,7.5 L14.5,7.5 L14.5,9 L13,9 L13,7.5 Z M3.5,11 L5,11 L5,12.5 L3.5,12.5 L3.5,11 Z M19,11 L20.5,11 L20.5,12.5 L19,12.5 L19,11 Z M9.5,11 L11,11 L11,12.5 L9.5,12.5 L9.5,11 Z M13,11 L14.5,11 L14.5,12.5 L13,12.5 L13,11 Z M3.5,14.5 L5,14.5 L5,16 L3.5,16 L3.5,14.5 Z M19,14.5 L20.5,14.5 L20.5,16 L19,16 L19,14.5 Z M9.5,14.5 L11,14.5 L11,16 L9.5,16 L9.5,14.5 Z M13,14.5 L14.5,14.5 L14.5,16 L13,16 L13,14.5 Z"/>
  </defs>
  <g fill="none" fill-rule="evenodd">
    <use fill="#000000" fill-rule="nonzero" xlink:href="#occupancies-a"/>
  </g>
</svg>
