<svg xmlns="http://www.w3.org/2000/svg" xmlns:xlink="http://www.w3.org/1999/xlink" width="24" height="24" viewBox="0 0 24 24">
  <defs>
    <path id="payroll-a" d="M20.1763989,6.95833575 L22.0966558,6.30835969 L21.0170199,10.9041904 L17.2883855,7.93629972 L19.2376293,7.27632403 C17.6819974,4.97190893 15.0243538,3.449965 12.0000509,3.449965 C7.71863062,3.449965 4.16798611,6.49485282 3.4458556,10.4997053 L2.46945379,10.4997053 C3.20277224,5.96787224 7.18415233,2.5 12.0000509,2.5 C15.4500039,2.5 18.4682043,4.28343429 20.1763989,6.95833575 Z M3.82360105,17.0416643 L1.90334416,17.6916403 L2.98298012,13.0958096 L6.71161454,16.0637003 L4.76287926,16.723676 C6.31800256,19.0280911 8.97564624,20.550035 11.9999491,20.550035 C16.2813694,20.550035 19.8320139,17.5051472 20.5541444,13.5002947 L21.5305462,13.5002947 C20.7972278,18.0321278 16.8163562,21.5 11.9999491,21.5 C8.55050462,21.5 5.53179568,19.7165657 3.82360105,17.0416643 Z M13.2896641,13.3086518 C13.0333586,13.0621609 12.6016059,12.8396691 11.9933889,12.6406764 C11.147174,12.3866858 10.5303119,12.0556979 10.1433109,11.647213 C9.75580146,11.239228 9.56204673,10.7207471 9.56204673,10.0917703 C9.56204673,9.4512939 9.75173312,8.92581326 10.1311059,8.51582836 C10.5104787,8.10534349 11.0322434,7.86135248 11.695383,7.78335535 L11.695383,6.49990264 L12.5832984,6.49990264 L12.5832984,7.78935513 C13.2510148,7.87885183 13.7702368,8.15434168 14.1419815,8.6153247 C14.5132176,9.07630771 14.6993442,9.70678449 14.6993442,10.507755 L13.6024178,10.507755 C13.6024178,9.95677528 13.4696881,9.51929139 13.2032118,9.19530333 C12.937244,8.87131527 12.5777044,8.70882125 12.1245929,8.70882125 C11.6516483,8.70882125 11.2905831,8.82931681 11.0398716,9.06930797 C10.7896686,9.30979911 10.6645671,9.64428679 10.6645671,10.0742709 C10.6645671,10.4727563 10.7967882,10.7897446 11.0607218,11.0262359 C11.325164,11.2627272 11.7599679,11.4772193 12.3661507,11.6707121 C12.9718249,11.864205 13.4447696,12.0771972 13.784476,12.3096886 C14.1241825,12.54168 14.3743854,12.8121701 14.5350849,13.1211587 C14.6962929,13.4296473 14.7766427,13.790634 14.7766427,14.2051188 C14.7766427,14.8650944 14.5747512,15.3960749 14.1719855,15.7985601 C13.7687112,16.2010452 13.2032118,16.4390365 12.4765044,16.5135337 L12.4765044,17.6324925 L11.594183,17.6324925 L11.594183,16.5135337 C10.8552706,16.4470362 10.2760406,16.1880457 9.85700144,15.7370623 C9.43796233,15.2860789 9.22844277,14.6736015 9.22844277,13.90013 L10.3309632,13.90013 C10.3309632,14.44311 10.4758978,14.8610946 10.7657671,15.1540838 C11.0561449,15.447073 11.4670473,15.5935676 11.9994915,15.5935676 C12.5197305,15.5935676 12.9291073,15.4705721 13.2271133,15.2245812 C13.5251193,14.9780903 13.6741223,14.6426026 13.6741223,14.2166183 C13.6741223,13.8571316 13.5459695,13.5546427 13.2896641,13.3086518 Z"/>
  </defs>
  <g fill="none" fill-rule="evenodd">
    <use fill="#FFFFFF" xlink:href="#payroll-a"/>
  </g>
</svg>
