<svg xmlns="http://www.w3.org/2000/svg" 
  xmlns:xlink="http://www.w3.org/1999/xlink" width="24" height="24" viewBox="0 0 24 24">
  <defs>
    <path id="reports-a" d="M20.6325387,15.7745681 L14.9057945,21.5013123 C14.8109595,21.6913632 14.6508671,21.8431546 14.4548689,21.9273349 C14.3803986,21.9698636 14.2973266,21.9917005 14.2140229,21.9928457 C14.1766802,21.9975669 14.1386242,22 14.1,22 L4,22 C3.44771525,22 3,21.5522847 3,21 L3,3 C3,2.44771525 3.44771525,2 4,2 L20,2 C20.5522847,2 21,2.44771525 21,3 L21,15 C21,15.312313 20.8568287,15.5911865 20.6325387,15.7745681 Z M18.9928933,16 L15.25,16 C15.1119288,16 15,16.1119288 15,16.25 L15,19.9928933 L18.9928933,16 Z M20,14.9939396 L20,3 L4,3 L4,21 L13.9928933,21 L14,20.9928933 L14,16.25 C14,15.5596441 14.5596441,15 15.25,15 L19.9933662,15 C19.9955637,14.9979564 19.997775,14.9959363 20,14.9939396 Z M6.5,6 L17.5,6 C17.7761424,6 18,6.22385763 18,6.5 C18,6.77614237 17.7761424,7 17.5,7 L6.5,7 C6.22385763,7 6,6.77614237 6,6.5 C6,6.22385763 6.22385763,6 6.5,6 Z M7.5,9 L8.5,9 C8.77614237,9 9,9.22385763 9,9.5 C9,9.77614237 8.77614237,10 8.5,10 L7.5,10 C7.22385763,10 7,9.77614237 7,9.5 C7,9.22385763 7.22385763,9 7.5,9 Z M7.5,12 L8.5,12 C8.77614237,12 9,12.2238576 9,12.5 C9,12.7761424 8.77614237,13 8.5,13 L7.5,13 C7.22385763,13 7,12.7761424 7,12.5 C7,12.2238576 7.22385763,12 7.5,12 Z M7.5,15 L8.5,15 C8.77614237,15 9,15.2238576 9,15.5 C9,15.7761424 8.77614237,16 8.5,16 L7.5,16 C7.22385763,16 7,15.7761424 7,15.5 C7,15.2238576 7.22385763,15 7.5,15 Z M11.5,9 L12.5,9 C12.7761424,9 13,9.22385763 13,9.5 C13,9.77614237 12.7761424,10 12.5,10 L11.5,10 C11.2238576,10 11,9.77614237 11,9.5 C11,9.22385763 11.2238576,9 11.5,9 Z M11.5,12 L12.5,12 C12.7761424,12 13,12.2238576 13,12.5 C13,12.7761424 12.7761424,13 12.5,13 L11.5,13 C11.2238576,13 11,12.7761424 11,12.5 C11,12.2238576 11.2238576,12 11.5,12 Z M11.5,15 C11.7761424,15 12,15.2238576 12,15.5 C12,15.7761424 11.7761424,16 11.5,16 C11.2238576,16 11,15.7761424 11,15.5 C11,15.2238576 11.2238576,15 11.5,15 Z M15.5,9 L16.5,9 C16.7761424,9 17,9.22385763 17,9.5 C17,9.77614237 16.7761424,10 16.5,10 L15.5,10 C15.2238576,10 15,9.77614237 15,9.5 C15,9.22385763 15.2238576,9 15.5,9 Z M15.5,12 L16.5,12 C16.7761424,12 17,12.2238576 17,12.5 C17,12.7761424 16.7761424,13 16.5,13 L15.5,13 C15.2238576,13 15,12.7761424 15,12.5 C15,12.2238576 15.2238576,12 15.5,12 Z"/>
  </defs>
  <g fill="none" fill-rule="evenodd">
    <use fill="#000000" fill-rule="nonzero" xlink:href="#reports-a"/>
  </g>
</svg>
