<svg xmlns="http://www.w3.org/2000/svg" width="48" height="48" viewBox="0 0 48 48">
  <path fill="#000000" d="M28.1819805,33.631728 L33.8388348,27.9748737 C34.2293591,27.5843494 34.862524,27.5843494 35.2530483,27.9748737 C35.6435726,28.365398 35.6435726,28.998563 35.2530483,29.3890873 L28.8890873,35.7530483 C28.6938252,35.9483105 28.4379028,36.0459415 28.1819805,36.0459415 C27.9260582,36.0459415 27.6701359,35.9483105 27.4748737,35.7530483 L24.6464466,32.9246212 C24.2559223,32.5340969 24.2559223,31.9009319 24.6464466,31.5104076 C25.0369709,31.1198833 25.6701359,31.1198833 26.0606602,31.5104076 L28.1819805,33.631728 Z M28.1819805,23.631728 L33.8388348,17.9748737 C34.2293591,17.5843494 34.862524,17.5843494 35.2530483,17.9748737 C35.6435726,18.365398 35.6435726,18.998563 35.2530483,19.3890873 L28.8890873,25.7530483 C28.6938252,25.9483105 28.4379028,26.0459415 28.1819805,26.0459415 C27.9260582,26.0459415 27.6701359,25.9483105 27.4748737,25.7530483 L24.6464466,22.9246212 C24.2559223,22.5340969 24.2559223,21.9009319 24.6464466,21.5104076 C25.0369709,21.1198833 25.6701359,21.1198833 26.0606602,21.5104076 L28.1819805,23.631728 Z M36,6 L40,6 C41.1045695,6 42,6.8954305 42,8 L42,40 C42,41.1045695 41.1045695,42 40,42 L8,42 C6.8954305,42 6,41.1045695 6,40 L6,8 C6,6.8954305 6.8954305,6 8,6 L12,6 L12,5 C12,4.44771525 12.4477153,4 13,4 L18,4 C18.5522847,4 19,4.44771525 19,5 L19,6 L29,6 L29,5 C29,4.44771525 29.4477153,4 30,4 L35,4 C35.5522847,4 36,4.44771525 36,5 L36,6 Z M36,8 L36,9 C36,9.55228475 35.5522847,10 35,10 L30,10 C29.4477153,10 29,9.55228475 29,9 L29,8 L19,8 L19,9 C19,9.55228475 18.5522847,10 18,10 L13,10 C12.4477153,10 12,9.55228475 12,9 L12,8 L8,8 L8,40 L40,40 L40,8 L36,8 Z M8,12 L40,12 L40,14 L8,14 L8,12 Z M14,6 L14,8 L17,8 L17,6 L14,6 Z M31,6 L31,8 L34,8 L34,6 L31,6 Z M14,21 L19,21 C19.5522847,21 20,21.4477153 20,22 C20,22.5522847 19.5522847,23 19,23 L14,23 C13.4477153,23 13,22.5522847 13,22 C13,21.4477153 13.4477153,21 14,21 Z M14,31 L19,31 C19.5522847,31 20,31.4477153 20,32 C20,32.5522847 19.5522847,33 19,33 L14,33 C13.4477153,33 13,32.5522847 13,32 C13,31.4477153 13.4477153,31 14,31 Z"/>
</svg>
