<svg xmlns="http://www.w3.org/2000/svg" 
  xmlns:xlink="http://www.w3.org/1999/xlink" width="24" height="24" viewBox="0 0 24 24">
  <defs>
    <path id="shifts-a" d="M12.5,13.5 L14,13.5 C14.2761424,13.5 14.5,13.7238576 14.5,14 C14.5,14.2761424 14.2761424,14.5 14,14.5 L12,14.5 C11.7238576,14.5 11.5,14.2761424 11.5,14 L11.5,11.5 C11.5,11.2238576 11.7238576,11 12,11 C12.2761424,11 12.5,11.2238576 12.5,11.5 L12.5,13.5 Z M15,4 L9,4 L9,4.5 C9,4.77614237 8.77614237,5 8.5,5 L6.5,5 C6.22385763,5 6,4.77614237 6,4.5 L6,4 L4,4 L4,6 L20,6 L20,7 L4,7 L4,20 L20,20 L20,4 L18,4 L18,4.5 C18,4.77614237 17.7761424,5 17.5,5 L15.5,5 C15.2238576,5 15,4.77614237 15,4.5 L15,4 Z M18,3 L20,3 C20.5522847,3 21,3.44771525 21,4 L21,20 C21,20.5522847 20.5522847,21 20,21 L4,21 C3.44771525,21 3,20.5522847 3,20 L3,4 C3,3.44771525 3.44771525,3 4,3 L6,3 L6,2.5 C6,2.22385763 6.22385763,2 6.5,2 L8.5,2 C8.77614237,2 9,2.22385763 9,2.5 L9,3 L15,3 L15,2.5 C15,2.22385763 15.2238576,2 15.5,2 L17.5,2 C17.7761424,2 18,2.22385763 18,2.5 L18,3 Z M7,3 L7,4 L8,4 L8,3 L7,3 Z M16,3 L16,4 L17,4 L17,3 L16,3 Z M12,18.5 C9.23857625,18.5 7,16.2614237 7,13.5 C7,10.7385763 9.23857625,8.5 12,8.5 C14.7614237,8.5 17,10.7385763 17,13.5 C17,16.2614237 14.7614237,18.5 12,18.5 Z M12,17.5 C14.209139,17.5 16,15.709139 16,13.5 C16,11.290861 14.209139,9.5 12,9.5 C9.790861,9.5 8,11.290861 8,13.5 C8,15.709139 9.790861,17.5 12,17.5 Z"/>
  </defs>
  <g fill="none" fill-rule="evenodd">
    <use fill="#000000" fill-rule="nonzero" xlink:href="#shifts-a"/>
  </g>
</svg>
