<svg xmlns="http://www.w3.org/2000/svg" 
  xmlns:xlink="http://www.w3.org/1999/xlink" width="24" height="24" viewBox="0 0 24 24">
  <defs>
    <path id="training-a" d="M22,11.7577745 C23.2059857,12.5650359 24,13.9397919 24,15.5 C24,17.0602081 23.2059857,18.4349641 22,19.2422255 L22,23.3605885 C22,23.6367309 21.7761424,23.8605885 21.5,23.8605885 C21.3745921,23.8605885 21.2537633,23.8134622 21.1614717,23.728554 L19.5846321,22.2778615 C19.5367935,22.23385 19.4632065,22.23385 19.4153679,22.2778615 L17.8385283,23.728554 C17.6353065,23.915518 17.3189985,23.9023385 17.1320345,23.6991168 C17.0471263,23.6068252 17,23.4859963 17,23.3605885 L17,20 L3,20 C2.44771525,20 2,19.5522847 2,19 L2,5 C2,4.44771525 2.44771525,4 3,4 L21,4 C21.5522847,4 22,4.44771525 22,5 L22,11.7577745 Z M21,11.2560586 L21,5 L3,5 L3,19 L16.6713328,19 C16.0311461,18.4819616 15.5359343,17.7918412 15.2560586,17 L7,17 C6.7235,17 6.5,16.776 6.5,16.5 C6.5,15.9485 6.051,15.5 5.5,15.5 C5.2235,15.5 5,15.276 5,15 L5,9 C5,8.724 5.2235,8.5 5.5,8.5 C6.051,8.5 6.5,8.0515 6.5,7.5 C6.5,7.224 6.7235,7 7,7 L17,7 C17.2765,7 17.5,7.224 17.5,7.5 C17.5,8.0515 17.9485,8.5 18.5,8.5 C18.7765,8.5 19,8.724 19,9 L19,11.0274644 C19.1641669,11.0093167 19.3309955,11 19.5,11 C20.0259531,11 20.5308316,11.0902313 21,11.2560586 Z M21,19.7439414 C20.5308316,19.9097687 20.0259531,20 19.5,20 C18.9740469,20 18.4691684,19.9097687 18,19.7439414 L18,22.221177 L18.7383114,21.5419305 C19.1688587,21.145827 19.8311413,21.145827 20.2616886,21.5419305 L21,22.221177 L21,19.7439414 Z M15.0274644,16 C15.0093167,15.8358331 15,15.6690045 15,15.5 C15,13.5406718 16.2522114,11.8738132 18,11.2560586 L18,9.437 C17.2985,9.2555 16.7445,8.702 16.5635,8 L7.4365,8 C7.2555,8.702 6.7015,9.2555 6,9.437 L6,14.563 C6.7015,14.7445 7.2555,15.298 7.4365,16 L15.0274644,16 Z M19.5,19 C21.4329966,19 23,17.4329966 23,15.5 C23,13.5670034 21.4329966,12 19.5,12 C17.5670034,12 16,13.5670034 16,15.5 C16,17.4329966 17.5670034,19 19.5,19 Z"/>
  </defs>
  <g fill="none" fill-rule="evenodd">
    <use fill="#000000" fill-rule="nonzero" xlink:href="#training-a"/>
  </g>
</svg>
