<svg xmlns="http://www.w3.org/2000/svg" width="24" height="24" viewBox="0 0 24 24">
  <path fill="#D2171E" fill-rule="evenodd" d="M19.8382818,17.0322108 C19.9865234,17.3237353 20.032849,17.6198146 19.9772584,17.920449 C19.9216677,18.2210835 19.7734261,18.4761671 19.5325332,18.6857003 C19.2916402,18.8952336 19.004422,19 18.6708781,19 L5.3291219,19 C4.995578,19 4.70835978,18.8952336 4.46746681,18.6857003 C4.22657385,18.4761671 4.07833226,18.2210835 4.02274161,17.920449 C3.96715096,17.6198146 4.01347664,17.3237353 4.16171823,17.0322108 L10.8325963,5.66276242 C10.9993683,5.37123796 11.2356286,5.17537034 11.5413771,5.07515872 C11.8471257,4.97494709 12.1528743,4.97494709 12.4586229,5.07515872 C12.7643714,5.17537034 13.0006317,5.37123796 13.1674037,5.66276242 L19.8382818,17.0322108 Z M12,14.7222222 C11.6695651,14.7222222 11.3869565,14.8363527 11.1521739,15.0646135 C10.9173913,15.2928744 10.8,15.5676327 10.8,15.8888889 C10.8,16.2101451 10.9173913,16.4849034 11.1521739,16.7131643 C11.3869565,16.9414251 11.6695651,17.0555556 12,17.0555556 C12.3304349,17.0555556 12.6130435,16.9414251 12.8478261,16.7131643 C13.0826087,16.4849034 13.2,16.2101451 13.2,15.8888889 C13.2,15.5676327 13.0826087,15.2928744 12.8478261,15.0646135 C12.6130435,14.8363527 12.3304349,14.7222222 12,14.7222222 Z M10.8,9.3453125 L11.0181818,12.9578125 C11.0181818,13.028646 11.0500001,13.0950522 11.1136364,13.1570312 C11.1772726,13.2190103 11.2545456,13.25 11.3454545,13.25 L12.6545455,13.25 C12.7454544,13.25 12.8227274,13.2190103 12.8863636,13.1570312 C12.9499999,13.0950522 12.9818182,13.028646 12.9818182,12.9578125 L13.2,9.3453125 C13.2,9.2390625 13.1681817,9.15494778 13.1045455,9.09296875 C13.0409092,9.03098972 12.9636362,9 12.8727273,9 L11.1272727,9 C11.0363638,9 10.9590908,9.03098972 10.8954545,9.09296875 C10.8318183,9.15494778 10.8,9.2390625 10.8,9.3453125 Z"/>
</svg>
