<svg xmlns="http://www.w3.org/2000/svg" width="24" height="24" viewBox="0 0 24 24">
  <path fill="#333D4F" fill-rule="evenodd" d="M18.9999,18 L4.9999,18 L4.9999,10 L15.9999,10 L16.9999,10 L18.9999,10 L18.9999,18 Z M9.1219,6 L9.1219,6.046 L9.1219,7.046 L10.1219,7.046 L15.9999,7.046 L15.9999,9 L4.9999,9 L4.9999,6 L9.1219,6 Z M16.9999,9 L16.9999,7.046 C16.9999,6.494 16.5529,6.046 15.9999,6.046 L10.1219,6.046 L10.1219,6 C10.1219,5.448 9.6729,5 9.1219,5 L4.9999,5 C4.4399,5.004 3.9959,5.455 3.9999,6.007 L3.9999,9.999 C3.9999,9.99966667 3.9999,12.6666667 3.9999,18 C3.9999,18.552 4.4479,19 4.9999,19 L18.9999,19 C19.5519,19 19.9999,18.552 19.9999,18 L19.9999,10 C19.9999,9.448 19.5519,9 18.9999,9 L16.9999,9 Z"/>
</svg>
