<svg xmlns="http://www.w3.org/2000/svg" width="24" height="24" viewBox="0 0 24 24">
  <path fill="#2D77CC" fill-rule="evenodd" d="M16.9999,10 L18.9999,10 C19.5519,10 19.9999,10.448 19.9999,11 L19.9999,18 C19.9999,18.552 19.5519,19 18.9999,19 L4.9999,19 C4.4479,19 3.9999,18.552 3.9999,18 C3.9999,12.6666667 3.9999,9.99966667 3.9999,9.999 L3.9999,7.007 C3.9959,6.455 4.4399,6.004 4.9999,6 L9.1219,6 C9.6729,6 10.1219,6.448 10.1219,7 L10.1219,7.046 L15.9999,7.046 C16.5529,7.046 16.9999,7.494 16.9999,8.046 L16.9999,9 L3.99987318,9 L3.99987318,10 L16.9999,10 Z"/>
</svg>
