<svg xmlns="http://www.w3.org/2000/svg" width="24" height="24" viewBox="0 0 24 24">
  <path fill="#333D4F" fill-rule="evenodd" d="M17,10.3846682 L15.5255438,11.4170935 L17,12.4495189 L17,10.3846682 Z M15.8059163,10 L13.5017244,10 L14.6538204,10.8067063 L15.8059163,10 Z M12.5,12.3148275 L13.782097,11.4170935 L12.5,10.5193596 L12.5,12.3148275 Z M13.2649191,13 L16.0427217,13 L14.6538204,12.0274808 L13.2649191,13 Z M17.2042502,9.02087603 L17.2340643,9 L17.2574969,9.03346517 C17.6849947,9.14706142 18,9.53674399 18,10 L18,17 C18,17.5522847 17.5522847,18 17,18 L7,18 C6.44771525,18 6,17.5522847 6,17 L6,10 C6,9.44771525 6.44771525,9 7,9 L17,9 C17.0699959,9 17.1383122,9.00719153 17.2042502,9.02087603 Z M7,13 L11.5,13 L11.5,10 L7,10 L7,13 Z M7,14 L7,17 L11.5,17 L11.5,14 L7,14 Z M17,14 L12.5,14 L12.5,17 L17,17 L17,14 Z M15,4 L9,4 L9,4.5 C9,4.77614237 8.77614237,5 8.5,5 L6.5,5 C6.22385763,5 6,4.77614237 6,4.5 L6,4 L4,4 L4,6 L20,6 L20,7 L4,7 L4,20 L20,20 L20,4 L18,4 L18,4.5 C18,4.77614237 17.7761424,5 17.5,5 L15.5,5 C15.2238576,5 15,4.77614237 15,4.5 L15,4 Z M18,3 L20,3 C20.5522847,3 21,3.44771525 21,4 L21,20 C21,20.5522847 20.5522847,21 20,21 L4,21 C3.44771525,21 3,20.5522847 3,20 L3,4 C3,3.44771525 3.44771525,3 4,3 L6,3 L6,2.5 C6,2.22385763 6.22385763,2 6.5,2 L8.5,2 C8.77614237,2 9,2.22385763 9,2.5 L9,3 L15,3 L15,2.5 C15,2.22385763 15.2238576,2 15.5,2 L17.5,2 C17.7761424,2 18,2.22385763 18,2.5 L18,3 Z M7,3 L7,4 L8,4 L8,3 L7,3 Z M16,3 L16,4 L17,4 L17,3 L16,3 Z"/>
</svg>
