<svg xmlns="http://www.w3.org/2000/svg" width="24" height="24" viewBox="0 0 24 24">
  <path fill="#333D4F" fill-rule="evenodd" d="M12,11.2928932 L14.4748737,8.81801948 C14.6701359,8.62275734 14.9867184,8.62275734 15.1819805,8.81801948 C15.3772427,9.01328163 15.3772427,9.32986412 15.1819805,9.52512627 L12.7071068,12 L15.1819805,14.4748737 C15.3772427,14.6701359 15.3772427,14.9867184 15.1819805,15.1819805 C14.9867184,15.3772427 14.6701359,15.3772427 14.4748737,15.1819805 L12,12.7071068 L9.52512627,15.1819805 C9.32986412,15.3772427 9.01328163,15.3772427 8.81801948,15.1819805 C8.62275734,14.9867184 8.62275734,14.6701359 8.81801948,14.4748737 L11.2928932,12 L8.81801948,9.52512627 C8.62275734,9.32986412 8.62275734,9.01328163 8.81801948,8.81801948 C9.01328163,8.62275734 9.32986412,8.62275734 9.52512627,8.81801948 L12,11.2928932 Z M12,20 C7.581722,20 4,16.418278 4,12 C4,7.581722 7.581722,4 12,4 C16.418278,4 20,7.581722 20,12 C20,16.418278 16.418278,20 12,20 Z M12,19 C15.8659932,19 19,15.8659932 19,12 C19,8.13400675 15.8659932,5 12,5 C8.13400675,5 5,8.13400675 5,12 C5,15.8659932 8.13400675,19 12,19 Z" opacity=".7"/>
</svg>
