<svg xmlns="http://www.w3.org/2000/svg" width="24" height="24" viewBox="0 0 24 24">
  <path fill="#333D4F" fill-rule="evenodd" d="M12.7071068,12 L18.0104076,17.3033009 C18.2056698,17.498563 18.2056698,17.8151455 18.0104076,18.0104076 C17.8151455,18.2056698 17.498563,18.2056698 17.3033009,18.0104076 L12,12.7071068 L6.69669914,18.0104076 C6.501437,18.2056698 6.18485451,18.2056698 5.98959236,18.0104076 C5.79433021,17.8151455 5.79433021,17.498563 5.98959236,17.3033009 L11.2928932,12 L5.98959236,6.69669914 C5.79433021,6.501437 5.79433021,6.18485451 5.98959236,5.98959236 C6.18485451,5.79433021 6.501437,5.79433021 6.69669914,5.98959236 L12,11.2928932 L17.3033009,5.98959236 C17.498563,5.79433021 17.8151455,5.79433021 18.0104076,5.98959236 C18.2056698,6.18485451 18.2056698,6.501437 18.0104076,6.69669914 L12.7071068,12 Z"/>
</svg>
