<svg xmlns="http://www.w3.org/2000/svg" width="24" height="24" viewBox="0 0 24 24">
  <path fill="#2D77CC" fill-rule="evenodd" d="M9.5,4 L14.5,4 C14.7761424,4 15,4.22385763 15,4.5 L15,5 L9,5 L9,4.5 C9,4.22385763 9.22385763,4 9.5,4 Z M5.5,6 L18.5,6 C18.7761424,6 19,6.22385763 19,6.5 L19,7.5 C19,7.77614237 18.7761424,8 18.5,8 L5.5,8 C5.22385763,8 5,7.77614237 5,7.5 L5,6.5 C5,6.22385763 5.22385763,6 5.5,6 Z M7,9 L17,9 L17,19 C17,19.5522847 16.5522847,20 16,20 L8,20 C7.44771525,20 7,19.5522847 7,19 L7,9 Z M10.5,12 C10.2238576,12 10,12.2238576 10,12.5 L10,16.5 C10,16.7761424 10.2238576,17 10.5,17 C10.7761424,17 11,16.7761424 11,16.5 L11,12.5 C11,12.2238576 10.7761424,12 10.5,12 Z M13.5,12 C13.2238576,12 13,12.2238576 13,12.5 L13,16.5 C13,16.7761424 13.2238576,17 13.5,17 C13.7761424,17 14,16.7761424 14,16.5 L14,12.5 C14,12.2238576 13.7761424,12 13.5,12 Z"/>
</svg>
