<svg xmlns="http://www.w3.org/2000/svg" width="24" height="24" viewBox="0 0 24 24">
  <path fill="#333D4F" fill-rule="evenodd" d="M13.0163622,5.8660493 C13.761007,5.29143754 14.6067841,5 15.5304124,5 C16.7659142,5 17.9025102,5.49377166 18.7307484,6.39010677 C19.549221,7.27595683 20,8.48625868 20,9.79809788 C20,11.1483303 19.4958228,12.3843575 18.4130937,13.6878165 C17.4446219,14.8539564 16.0528708,16.0374415 14.4410818,17.4080593 C13.8903814,17.8762615 13.2661657,18.4071791 12.6184345,18.9723582 C12.4473806,19.1217214 12.2276551,19.2040816 12,19.2040816 C11.7721886,19.2040816 11.5526194,19.1217214 11.3814093,18.9722023 C10.7350452,18.4082705 10.1118842,17.8782494 9.56212128,17.4108268 C7.94744166,16.0375974 6.55537815,14.8539564 5.58690631,13.6878165 C4.50429441,12.3843575 4,11.1483303 4,9.79809788 C4,8.48625868 4.45073999,7.27595683 5.26921255,6.39010677 C6.0974507,5.49377166 7.23392952,5 8.4697438,5 C9.39333304,5 10.2391492,5.29143754 10.9835987,5.8660493 C11.1029936,5.95819232 11.2188451,6.05691451 11.3309816,6.1620169 C11.5111084,6.3206723 11.7341146,6.57500003 12,6.92500008 C12.2666667,6.57500003 12.4892878,6.32099976 12.6678634,6.16299929 C12.7803262,6.05752963 12.8965456,5.95847936 13.0163622,5.8660493 Z M13.7932696,16.6462593 C16.0519341,14.7255576 16.8803536,13.9681893 17.6438614,13.0488473 C18.5854349,11.9153204 19,10.8991223 19,9.79809788 C19,8.73222565 18.6398989,7.76535191 17.9962929,7.06876368 C17.357956,6.37794324 16.4878817,6 15.5304124,6 C14.8290611,6 14.1978518,6.21745657 13.6271661,6.65783126 C13.4936857,6.76080189 13.3649841,6.87496993 13.2142597,7.02666963 C13.198128,7.04181902 13.0268952,7.24459857 12.7784489,7.55270802 C12.4810542,7.91756934 12.2241303,8.1 12.0076773,8.1 C11.7912243,8.1 11.5312232,7.92007543 11.2276739,7.56022628 C10.9591811,7.23378507 10.7845628,7.02703238 10.7585238,7.00021931 C10.6349453,6.87500955 10.5061757,6.76076793 10.3725805,6.65766585 C9.80226639,6.21746244 9.17106935,6 8.4697438,6 C7.5120285,6 6.64204948,6.37789507 6.00369986,7.06872919 C5.36008152,7.76533085 5,8.73219587 5,9.79809788 C5,10.8990121 5.4146007,11.9152406 6.35620087,13.0489222 C7.11957266,13.9681005 7.94641657,14.7239836 10.2098696,16.6489723 C11.0377312,17.3528417 11.4770032,17.7288558 12.0000086,18.1848209 C12.5241058,17.7278615 12.9653743,17.3501308 13.7932696,16.6462593 Z"/>
</svg>
