<svg xmlns="http://www.w3.org/2000/svg" width="24" height="24" viewBox="0 0 24 24">
  <path fill="#333D4F" fill-rule="evenodd" d="M11.0346017,20.4407045 C10.5360848,20.651337 10.050991,20.2925579 10,19.7354763 L10,12.9861485 C10,12.7344331 9.91023093,12.4759318 9.74004244,12.2588317 L5.14737284,5.68091833 C4.77269364,5.17206862 5.14197668,4.5 5.75,4.5 L19.25,4.5 C19.8580233,4.5 20.2273064,5.17206862 19.8599576,5.67069609 L15.251438,12.2706622 C15.0868416,12.4923368 15,12.7392426 15,12.9861485 L15,18.7568673 C15,19.0204298 14.8740883,19.1486004 14.6864769,19.256984 C14.6191772,19.2958633 14.543375,19.3284353 14.4563998,19.3592411 C14.3520544,19.3961993 14.2255964,19.4315821 14.1370118,19.4508777 L11.0346017,20.4407045 Z M13.8577267,18.4903205 L13.9166065,18.475369 C13.9341216,18.4720388 13.9649218,18.4644288 14,18.4546979 L14,12.9861485 C14,12.5175459 14.1596614,12.0636007 14.4400424,11.6863466 L18.7596843,5.5 L6.24043297,5.5 L10.542547,11.6629008 C10.8344675,12.032926 11,12.5095976 11,12.9861485 L10.9978254,19.4047305 L13.8577267,18.4903205 Z M19.0473728,5.08798875 C19.0447996,5.09148346 19.0423378,5.09501096 19.0399856,5.09856835 L19.0473728,5.08798875 Z M14,18.7568673 L14,18.6032249 C13.9994914,18.6427936 14,18.6928346 14,18.7568673 Z M14.0727328,18.4331926 C14.0900168,18.4277465 14.1069281,18.422148 14.1225328,18.4166209 C14.1136134,18.4197801 14.1053388,18.4226998 14.0976626,18.425487 L14.0727328,18.4331926 Z"/>
</svg>
