<svg xmlns="http://www.w3.org/2000/svg" width="24" height="24" viewBox="0 0 24 24">
  <path fill="#2D77CC" fill-rule="evenodd" d="M12,20 C7.581722,20 4,16.418278 4,12 C4,7.581722 7.581722,4 12,4 C16.418278,4 20,7.581722 20,12 C20,16.418278 16.418278,20 12,20 Z M12.0001313,7 C11.4209839,7 10.95,7.4711875 10.95,8.050525 C10.95,8.629075 11.4209839,9.1 12.0001313,9.1 C12.5790161,9.1 13.05,8.629075 13.05,8.050525 C13.05,7.4711875 12.5790161,7 12.0001313,7 Z M12,10 C11.5195123,10 11.13,10.3895123 11.13,10.87 L11.13,16.13 C11.13,16.6104877 11.5195123,17 12,17 C12.4804877,17 12.87,16.6104877 12.87,16.13 L12.87,10.87 C12.87,10.3895123 12.4804877,10 12,10 Z"/>
</svg>
