<svg xmlns="http://www.w3.org/2000/svg" width="24" height="24" viewBox="0 0 24 24">
  <path fill="#333D4F" fill-rule="evenodd" d="M12,20 C7.581722,20 4,16.418278 4,12 C4,7.581722 7.581722,4 12,4 C16.418278,4 20,7.581722 20,12 C20,16.418278 16.418278,20 12,20 Z M12,19 C15.8659932,19 19,15.8659932 19,12 C19,8.13400675 15.8659932,5 12,5 C8.13400675,5 5,8.13400675 5,12 C5,15.8659932 8.13400675,19 12,19 Z M12.0001313,7 C12.5790161,7 13.05,7.4711875 13.05,8.050525 C13.05,8.629075 12.5790161,9.1 12.0001313,9.1 C11.4209839,9.1 10.95,8.629075 10.95,8.050525 C10.95,7.4711875 11.4209839,7 12.0001313,7 Z M12,10 C12.4804877,10 12.87,10.3895123 12.87,10.87 L12.87,16.13 C12.87,16.6104877 12.4804877,17 12,17 C11.5195123,17 11.13,16.6104877 11.13,16.13 L11.13,10.87 C11.13,10.3895123 11.5195123,10 12,10 Z"/>
</svg>
