<svg xmlns="http://www.w3.org/2000/svg" width="24" height="24" viewBox="0 0 24 24">
  <path fill="#333D4F" fill-rule="evenodd" d="M9,10 L15,10 L15,7 C15,5.34314575 13.6568542,4 12,4 C10.3431458,4 9,5.34314575 9,7 L9,10 Z M11.25,15.5493267 C10.801649,15.2899696 10.5,14.8052118 10.5,14.25 C10.5,13.4215729 11.1715729,12.75 12,12.75 C12.8284271,12.75 13.5,13.4215729 13.5,14.25 C13.5,14.8052118 13.198351,15.2899696 12.75,15.5493267 L12.75,16.5 C12.75,16.9142136 12.4142136,17.25 12,17.25 C11.5857864,17.25 11.25,16.9142136 11.25,16.5 L11.25,15.5493267 Z M8,10 L8,7 C8,4.790861 9.790861,3 12,3 C14.209139,3 16,4.790861 16,7 L15,7 L15,10 L16,10 L17,10 C17.5522847,10 18,10.4477153 18,11 L18,19 C18,19.5522847 17.5522847,20 17,20 L7,20 C6.44771525,20 6,19.5522847 6,19 L6,11 C6,10.4477153 6.44771525,10 7,10 L8,10 Z M7,11 L7,19 L17,19 L17,11 L7,11 Z"/>
</svg>
