<svg xmlns="http://www.w3.org/2000/svg" width="24" height="24" viewBox="0 0 24 24">
  <path fill="#333D4F" fill-rule="evenodd" d="M12,20 C8,15.5424723 6,12.209139 6,10 C6,6.6862915 8.6862915,4 12,4 C15.3137085,4 18,6.6862915 18,10 C18,12.209139 16,15.5424723 12,20 Z M17,10 C17,7.23857625 14.7614237,5 12,5 C9.23857625,5 7,7.23857625 7,10 C7,11.7544564 8.65668391,14.6328469 12,18.4887079 C15.3433161,14.6328469 17,11.7544564 17,10 Z M12,12 C10.8954305,12 10,11.1045695 10,10 C10,8.8954305 10.8954305,8 12,8 C13.1045695,8 14,8.8954305 14,10 C14,11.1045695 13.1045695,12 12,12 Z"/>
</svg>
