<svg xmlns="http://www.w3.org/2000/svg" width="24" height="24" viewBox="0 0 24 24">
  <path fill="#333D4F" fill-rule="evenodd" d="M15,6.41421356 L13.5857864,5 L9,5 L9,8 L15,8 L15,6.41421356 Z M7,16 L6.25,16 C5.97385763,16 5.75,15.7761424 5.75,15.5 C5.75,15.2238576 5.97385763,15 6.25,15 L17.75,15 C18.0261424,15 18.25,15.2238576 18.25,15.5 C18.25,15.7761424 18.0261424,16 17.75,16 L17,16 L17,17 L19,17 L19,9 L5,9 L5,17 L7,17 L7,16 Z M8,16 L8,20 L16,20 L16,16 L8,16 Z M7,18 L5,18 C4.44771525,18 4,17.5522847 4,17 L4,9 C4,8.44771525 4.44771525,8 5,8 L8,8 L8,5 C8,4.44771525 8.44771525,4 9,4 L15,4 C15.5522847,4 16,4.44771525 16,5 L16,8 L19,8 C19.5522847,8 20,8.44771525 20,9 L20,17 C20,17.5522847 19.5522847,18 19,18 L17,18 L17,20 C17,20.5522847 16.5522847,21 16,21 L8,21 C7.44771525,21 7,20.5522847 7,20 L7,18 Z M16.5,11 C17.0522847,11 17.5,11.4477153 17.5,12 C17.5,12.5522847 17.0522847,13 16.5,13 C15.9477153,13 15.5,12.5522847 15.5,12 C15.5,11.4477153 15.9477153,11 16.5,11 Z"/>
</svg>
