<svg xmlns="http://www.w3.org/2000/svg" width="24" height="24" viewBox="0 0 24 24">
  <path fill="#333D4F" fill-rule="evenodd" d="M17.9062128,17.4912766 L14.6760851,14.1321702 C15.5068511,13.1441277 15.962,11.9014043 15.962,10.6077447 C15.962,7.58582979 13.5033617,5.12719149 10.4802553,5.12719149 C7.4586383,5.12719149 5,7.58582979 5,10.6077447 C5,13.6305532 7.4586383,16.0891915 10.4802553,16.0891915 C11.6148511,16.0891915 12.6970213,15.747234 13.6207234,15.0966809 L16.8764681,18.4825957 C17.0125957,18.6246809 17.1951915,18.7024255 17.3920851,18.7024255 C17.5770638,18.7024255 17.7525106,18.6315319 17.8865532,18.5025532 C18.171617,18.2291064 18.1796596,17.7763404 17.9062128,17.4912766 Z M10.4802553,6.5572766 C12.7142979,6.5572766 14.5319149,8.37489362 14.5319149,10.6077447 C14.5319149,12.8417872 12.7142979,14.6591064 10.4802553,14.6591064 C8.24740426,14.6591064 6.43008511,12.8417872 6.43008511,10.6077447 C6.43008511,8.37489362 8.24740426,6.5572766 10.4802553,6.5572766 Z"/>
</svg>
