<svg xmlns="http://www.w3.org/2000/svg" width="24" height="24" viewBox="0 0 24 24">
  <path fill="#333D4F" fill-rule="evenodd" d="M18.9966235,12.6917647 L19,11.3049824 C19,11.2622 18.9702294,11.2258412 18.9274471,11.2192529 L17.5438353,10.9853706 C17.3725412,10.9589765 17.2310176,10.8306294 17.1882353,10.6593353 C17.0629353,10.1750176 16.872,9.71067059 16.6149765,9.2791 C16.5260353,9.12761176 16.5326235,8.93651176 16.6347412,8.79482353 L17.4484706,7.65184706 C17.4714471,7.61548824 17.4680706,7.56949412 17.4385059,7.53972353 L16.4568588,6.55807647 C16.4338412,6.5351 16.4074882,6.53172353 16.3942706,6.53172353 C16.3778824,6.53172353 16.3613294,6.53831176 16.3449,6.54827647 L15.2083882,7.36521765 C15.0634471,7.46733529 14.8757235,7.47396471 14.7242353,7.38498235 C14.2827,7.12474706 13.8083882,6.93027059 13.3110176,6.80513529 C13.1397235,6.76235294 13.0112118,6.62066471 12.9816059,6.44615882 L12.7509765,5.07251176 C12.7443882,5.02956471 12.7081941,5 12.6654118,5 L11.2784235,5 C11.2356412,5 11.1994471,5.02956471 11.1928588,5.07251176 L10.9556,6.46592353 C10.9260353,6.63721765 10.7974824,6.77557059 10.6295647,6.82172941 C10.1452882,6.94686471 9.6809,7.14455294 9.25258235,7.40141176 C9.10105294,7.49035294 8.90999412,7.48376471 8.76505294,7.38160588 L7.62866471,6.57129412 C7.61548824,6.56145294 7.59893529,6.55486471 7.57912941,6.55486471 C7.56274118,6.55486471 7.53972353,6.55807647 7.51658235,6.58125882 L6.53493529,7.56290588 C6.50532941,7.59247059 6.50195294,7.64188235 6.52513529,7.67482353 L7.34528824,8.82776471 C7.44740588,8.96949412 7.45737059,9.15717647 7.36842941,9.30870588 C7.11478235,9.74027647 6.92689412,10.208 6.80513529,10.6923176 C6.76218824,10.8636118 6.62066471,10.9919588 6.44599412,11.0217294 L5.07234706,11.2521941 C5.02956471,11.2588235 5,11.2949765 5,11.3379235 L5,12.7247471 C5,12.7675294 5.02956471,12.8037235 5.07234706,12.8103118 L6.46575882,13.0475706 C6.63705294,13.0771765 6.77540588,13.2056882 6.82156471,13.3736059 C6.9467,13.8579235 7.14438824,14.3224353 7.40141176,14.7505882 C7.49018824,14.9021176 7.48376471,15.0932176 7.38160588,15.2381176 L6.57129412,16.3746706 C6.54811176,16.4108647 6.55148824,16.4570235 6.58109412,16.4865882 L7.56274118,17.4682353 C7.58571765,17.4912529 7.61211176,17.4946294 7.62528824,17.4946294 C7.64188235,17.4946294 7.65827059,17.4880412 7.6747,17.4780765 L8.82764118,16.6579235 C8.90336471,16.6019235 8.99572353,16.5755706 9.08466471,16.5755706 C9.16042941,16.5755706 9.23940588,16.5953353 9.30854118,16.6347412 C9.73352353,16.8785882 10.1882353,17.0663118 10.6591706,17.1882353 C10.8272529,17.2310176 10.9556,17.3694941 10.9853706,17.544 L11.2158765,18.9276118 C11.2224647,18.9703941 11.2588235,19 11.3016059,19 L12.6883882,19 C12.7311706,19 12.7673647,18.9703941 12.7739529,18.9276118 L13.0078353,17.544 C13.0342294,17.3727059 13.1627412,17.2310176 13.3340353,17.1882353 C13.8183529,17.0630588 14.2827,16.872 14.7142706,16.6151412 C14.8657588,16.5261588 15.0568588,16.5327882 15.1985471,16.6347412 L16.3415235,17.4484706 C16.3547,17.4582706 16.3712941,17.4648588 16.3908941,17.4648588 C16.4074882,17.4648588 16.4304647,17.4616471 16.4536471,17.4386706 L17.4352941,16.4570235 C17.4648588,16.4272529 17.4680706,16.3778824 17.4450941,16.3449 L16.6313647,15.1985471 C16.5294118,15.0536471 16.5227824,14.8659235 16.6117647,14.7143941 C16.8686235,14.2828647 17.0596824,13.8183529 17.1848588,13.3342 C17.2276412,13.1661176 17.3661176,13.0376059 17.5406235,13.008 L18.9242353,12.7773294 C18.9670176,12.7707412 18.9966235,12.7345471 18.9966235,12.6917647 Z M19.0886819,13.7637154 L18.0511939,13.9366784 C17.9437953,14.271897 17.8094001,14.5960655 17.6494327,14.9051772 L18.2656233,15.7732954 C18.5635603,16.2009791 18.516292,16.787644 18.1424009,17.1641303 L17.1575929,18.1489242 C16.9334112,18.371115 16.6600573,18.4648588 16.3908941,18.4648588 C16.1518044,18.4648588 15.9273222,18.3866684 15.761552,18.2631073 L14.9044668,17.6529034 C14.5950884,17.8128829 14.2717599,17.946895 13.9356868,18.0545807 L13.7623026,19.0798119 C13.6798966,19.6149362 13.2202141,20 12.6883882,20 L11.3016059,20 C10.7702925,20 10.3100165,19.6154794 10.2294714,19.0919441 L10.0565831,18.054147 C9.73815286,17.9516018 9.42679525,17.823575 9.12618364,17.6719978 L8.19328664,18.3331016 C8.03234685,18.4307142 7.85060918,18.4946294 7.62528824,18.4946294 C7.35853547,18.4946294 7.08192943,18.4020432 6.8556344,18.1753421 L5.87447958,17.1941869 C5.50490256,16.8251239 5.45772851,16.2591827 5.75704871,15.7941498 L6.36341092,14.9436769 C6.19888355,14.6298048 6.06176051,14.3044763 5.95514435,13.9749882 L4.92014691,13.7986615 C4.38486039,13.7162304 4,13.2564194 4,12.7247471 L4,11.3379235 C4,10.8064915 4.3843069,10.346876 4.90688391,10.2659781 L5.93544123,10.0934137 C6.04025776,9.75873899 6.17196759,9.43455525 6.3294885,9.12494333 L5.70734669,8.25034226 C5.40509761,7.82085866 5.45337775,7.22972873 5.82782851,6.8557991 L6.80884731,5.87478086 C7.03317067,5.65005835 7.30829221,5.55486471 7.57912941,5.55486471 C7.81870014,5.55486471 8.04390835,5.63330171 8.2092413,5.75708848 L9.05961268,6.36346722 C9.37356203,6.19898404 9.69882379,6.06190258 10.0281831,5.95531841 L10.2044215,4.92088188 C10.2865638,4.38541659 10.7462963,4 11.2784235,4 L12.6654118,4 C13.197539,4 13.6572715,4.38541659 13.7371731,4.9069336 L13.90988,5.93559617 C14.2557351,6.04416266 14.5909098,6.18178715 14.9124967,6.34726518 L15.8263134,5.69325139 C15.9872089,5.59566562 16.1693642,5.53172353 16.3942706,5.53172353 C16.6605342,5.53172353 16.9365862,5.62399647 17.1639656,5.85096969 L18.1480619,6.83507452 C18.513416,7.20297286 18.5607271,7.76369708 18.2631073,8.23181863 L17.6528464,9.08897849 C17.8127537,9.39815199 17.9467252,9.7213738 18.054474,10.0575289 L19.0796472,10.2309032 C19.6146666,10.3132931 20,10.7730571 19.999997,11.3074171 L19.9966219,12.6936321 C19.9957218,13.2246662 19.6109477,13.6833672 19.0886819,13.7637154 Z M13.9938475,17.7106731 L13.9912795,17.7258578 C13.992211,17.720815 13.9930673,17.715753 13.9938475,17.7106731 Z M8.83209261,17.5142389 C8.82583957,17.5106781 8.81959197,17.5071068 8.81334985,17.5035251 C8.82845428,17.5121344 8.84380864,17.5199715 8.85938462,17.5270369 L8.83209261,17.5142389 Z M6.53042761,9.40742163 L6.52669021,9.40216764 C6.52792455,9.40392564 6.52917036,9.40567701 6.53042761,9.40742163 Z M18.1584326,10.4170192 C18.1579851,10.4152272 18.1575291,10.4134388 18.1570648,10.4116541 C18.1575082,10.4134481 18.1579708,10.4152335 18.1584326,10.4170192 Z M12,14.75 C10.4812169,14.75 9.25,13.5187831 9.25,12 C9.25,10.4812169 10.4812169,9.25 12,9.25 C13.5187831,9.25 14.75,10.4812169 14.75,12 C14.75,13.5187831 13.5187831,14.75 12,14.75 Z M12,13.75 C12.9664983,13.75 13.75,12.9664983 13.75,12 C13.75,11.0335017 12.9664983,10.25 12,10.25 C11.0335017,10.25 10.25,11.0335017 10.25,12 C10.25,12.9664983 11.0335017,13.75 12,13.75 Z"/>
</svg>
