<svg xmlns="http://www.w3.org/2000/svg" width="24" height="24" viewBox="0 0 24 24">
  <path fill="#333D4F" fill-rule="evenodd" d="M12.0000001,18 C8.44657488,18 5.48302626,15.7852887 3.27744761,12.8376171 C2.90718502,12.3424182 2.90718502,11.6575818 3.2775434,11.1622548 C5.48302626,8.21471125 8.44657488,6 12.0000001,6 C15.5534254,6 18.516974,8.21471125 20.7225527,11.1623829 C21.0928153,11.6575818 21.0928153,12.3424182 20.7224569,12.8377452 C18.516974,15.7852887 15.5534254,18 12.0000001,18 Z M12.0000001,17.0769231 C15.1677925,17.0769231 17.9133506,15.0251199 19.9568394,12.2940752 C20.0848933,12.1228125 20.0848933,11.8771875 19.9569352,11.7060529 C17.9133506,8.97488008 15.1677925,6.92307692 12.0000001,6.92307692 C8.83220783,6.92307692 6.08664973,8.97488008 4.04316084,11.7059248 C3.91510694,11.8771875 3.91510694,12.1228125 4.04306504,12.2939471 C6.08664973,15.0251199 8.83220783,17.0769231 12.0000001,17.0769231 Z M15,12 C15,13.6569792 13.6569792,15 12,15 C10.3430208,15 9,13.6569792 9,12 C9,10.3430208 10.3430208,9 12,9 C13.6569792,9 15,10.3430208 15,12 Z M14.1428571,12 C14.1428571,10.8164077 13.1835923,9.85714286 12,9.85714286 C10.8164077,9.85714286 9.85714286,10.8164077 9.85714286,12 C9.85714286,13.1835923 10.8164077,14.1428571 12,14.1428571 C13.1835923,14.1428571 14.1428571,13.1835923 14.1428571,12 Z"/>
</svg>
