<svg xmlns="http://www.w3.org/2000/svg" width="24" height="24" viewBox="0 0 24 24">
  <path fill="#333D4F" fill-rule="evenodd" d="M7.14281374,16.5301962 L8.0723082,15.9935523 C9.28301473,16.6763342 10.6002895,17.0769231 12.0000001,17.0769231 C15.1677925,17.0769231 17.9133506,15.0251199 19.9568394,12.2940752 C20.0848933,12.1228125 20.0848933,11.8771875 19.9569352,11.7060529 C19.4983693,11.093197 19.0044575,10.5145489 18.4783604,9.98561526 L19.3170929,9.50137282 C19.8147129,10.0182319 20.2836411,10.5757943 20.7225527,11.1623829 C21.0928153,11.6575818 21.0928153,12.3424182 20.7224569,12.8377452 C18.516974,15.7852887 15.5534254,18 12.0000001,18 C10.2271512,18 8.60113082,17.4487277 7.14281374,16.5301962 Z M4.67529635,14.4907164 C4.18050526,13.9760805 3.71412084,13.4212142 3.27744761,12.8376171 C2.90718502,12.3424182 2.90718502,11.6575818 3.2775434,11.1622548 C5.48302626,8.21471125 8.44657488,6 12.0000001,6 C13.7687171,6 15.3912892,6.54870563 16.8469872,7.46338741 L15.9169026,8.000372 C14.7091607,7.32128995 13.395554,6.92307692 12.0000001,6.92307692 C8.83220783,6.92307692 6.08664973,8.97488008 4.04316084,11.7059248 C3.91510694,11.8771875 3.91510694,12.1228125 4.04306504,12.2939471 C4.49937256,12.9037847 4.99067866,13.4797506 5.51386915,14.0065662 L4.67529635,14.4907164 Z M10.4941336,14.5953108 L11.416857,14.0625761 C11.6022538,14.1148764 11.7978552,14.1428571 12,14.1428571 C13.0019933,14.1428571 13.8432157,13.4553709 14.0777659,12.5262997 L14.9999938,11.9938511 C14.9999979,11.9959003 15,11.9979499 15,12 C15,13.6569792 13.6569792,15 12,15 C11.4511276,15 10.9367045,14.852636 10.4941336,14.5953108 Z M9.00000618,11.993844 C9.00332765,10.3396957 10.3450733,9 12,9 C12.544478,9 13.055056,9.14501377 13.4952225,9.39852966 L12.5687625,9.93342159 C12.3876415,9.88369741 12.1969257,9.85714286 12,9.85714286 C11.0032051,9.85714286 10.1655174,10.5375141 9.92593365,11.4592595 L9.00000618,11.993844 Z M2.25,17.6230127 C2.11192881,17.3838664 2.19386639,17.0780712 2.4330127,16.94 L21.0698794,6.18 C21.3090257,6.04192881 21.6148209,6.12386639 21.7528921,6.3630127 C21.8909633,6.60215901 21.8090257,6.90795422 21.5698794,7.0460254 L2.9330127,17.8060254 C2.69386639,17.9440966 2.38807119,17.862159 2.25,17.6230127 Z"/>
</svg>
