<svg xmlns="http://www.w3.org/2000/svg" width="24" height="24" viewBox="0 0 24 24">
  <path fill="#008756" fill-rule="evenodd" d="M16.4194,9.8789 L11.1164,15.1819 C10.8234,15.4749 10.3484,15.4749 10.0554,15.1819 L7.5804,12.7069 C7.2874,12.4139 7.2874,11.9399 7.5804,11.6469 C7.8734,11.3539 8.3484,11.3539 8.6414,11.6469 L10.5864,13.5909 L15.3584,8.8179 C15.6514,8.5249 16.1264,8.5249 16.4194,8.8179 C16.7124,9.1109 16.7124,9.5859 16.4194,9.8789 M12.0004,3.9999 C7.5814,3.9999 4.0004,7.5819 4.0004,11.9999 C4.0004,16.4189 7.5814,19.9999 12.0004,19.9999 C16.4184,19.9999 20.0004,16.4189 20.0004,11.9999 C20.0004,7.5819 16.4184,3.9999 12.0004,3.9999"/>
</svg>
