<svg xmlns="http://www.w3.org/2000/svg" width="24" height="24" viewBox="0 0 24 24">
  <path fill="#333D4F" fill-rule="evenodd" d="M12.5,11.5 L20,11.5 C20.2761424,11.5 20.5,11.7238576 20.5,12 C20.5,12.2761424 20.2761424,12.5 20,12.5 L12.5,12.5 L12.5,20 C12.5,20.2761424 12.2761424,20.5 12,20.5 C11.7238576,20.5 11.5,20.2761424 11.5,20 L11.5,12.5 L4,12.5 C3.72385763,12.5 3.5,12.2761424 3.5,12 C3.5,11.7238576 3.72385763,11.5 4,11.5 L11.5,11.5 L11.5,4 C11.5,3.72385763 11.7238576,3.5 12,3.5 C12.2761424,3.5 12.5,3.72385763 12.5,4 L12.5,11.5 Z" transform="rotate(45 12 12)"/>
</svg>
