<svg xmlns="http://www.w3.org/2000/svg" xmlns:xlink="http://www.w3.org/1999/xlink" width="14" height="16" viewBox="0 0 14 16">
  <defs>
    <path id="delete-a" d="M4,2 L4,1 C4,0.44771525 4.44771525,0 5,0 L9,0 C9.55228475,0 10,0.44771525 10,1 L10,2 L13,2 C13.5522847,2 14,2.44771525 14,3 L14,5 C14,5.55228475 13.5522847,6 13,6 L12,6 L12,15 C12,15.5522847 11.5522847,16 11,16 L3,16 C2.44771525,16 2,15.5522847 2,15 L2,6 L1,6 C0.44771525,6 0,5.55228475 0,5 L0,3 C0,2.44771525 0.44771525,2 1,2 L4,2 Z M5,3 L1,3 L1,5 L13,5 L13,3 L9,3 L5,3 Z M3,6 L3,15 L11,15 L11,6 L3,6 Z M5,1 L5,2 L9,2 L9,1 L5,1 Z M5.5,8 C5.77614237,8 6,8.22385763 6,8.5 L6,12.5 C6,12.7761424 5.77614237,13 5.5,13 C5.22385763,13 5,12.7761424 5,12.5 L5,8.5 C5,8.22385763 5.22385763,8 5.5,8 Z M8.5,8 C8.77614237,8 9,8.22385763 9,8.5 L9,12.5 C9,12.7761424 8.77614237,13 8.5,13 C8.22385763,13 8,12.7761424 8,12.5 L8,8.5 C8,8.22385763 8.22385763,8 8.5,8 Z"/>
  </defs>
  <use fill="#333D4F" fill-rule="evenodd" xlink:href="#delete-a"/>
</svg>
