<svg xmlns="http://www.w3.org/2000/svg" width="24" height="24" viewBox="0 0 24 24">
  <path fill="#333D4F" fill-rule="evenodd" d="M13,13.1424004 L14.9604198,11.1819805 C15.155682,10.9867184 15.4722645,10.9867184 15.6675266,11.1819805 C15.8627888,11.3772427 15.8627888,11.6938252 15.6675266,11.8890873 L12.8390995,14.7175144 C12.7414684,14.8151455 12.6135073,14.863961 12.4855461,14.863961 C12.357585,14.863961 12.2296238,14.8151455 12.1319927,14.7175144 L9.3035656,11.8890873 C9.10830345,11.6938252 9.10830345,11.3772427 9.3035656,11.1819805 C9.49882774,10.9867184 9.81541023,10.9867184 10.0106724,11.1819805 L12,13.1713081 L12,5.5 C12,5.22385763 12.2238576,5 12.5,5 C12.7761424,5 13,5.22385763 13,5.5 L13,13.1424004 Z M19,18 L19,16.5 C19,16.2238576 19.2238576,16 19.5,16 C19.7761424,16 20,16.2238576 20,16.5 L20,18.5 C20,18.7761424 19.7761424,19 19.5,19 L5.5,19 C5.22385763,19 5,18.7761424 5,18.5 L5,16.5 C5,16.2238576 5.22385763,16 5.5,16 C5.77614237,16 6,16.2238576 6,16.5 L6,18 L19,18 Z"/>
</svg>
