<svg xmlns="http://www.w3.org/2000/svg" width="24" height="24" viewBox="0 0 24 24">
  <path fill="#333D4F" fill-rule="evenodd" d="M9.5,8.5 C8.67157288,8.5 8,7.82842712 8,7 C8,6.17157288 8.67157288,5.5 9.5,5.5 C10.3284271,5.5 11,6.17157288 11,7 C11,7.82842712 10.3284271,8.5 9.5,8.5 Z M9.5,13.5 C8.67157288,13.5 8,12.8284271 8,12 C8,11.1715729 8.67157288,10.5 9.5,10.5 C10.3284271,10.5 11,11.1715729 11,12 C11,12.8284271 10.3284271,13.5 9.5,13.5 Z M9.5,18.5 C8.67157288,18.5 8,17.8284271 8,17 C8,16.1715729 8.67157288,15.5 9.5,15.5 C10.3284271,15.5 11,16.1715729 11,17 C11,17.8284271 10.3284271,18.5 9.5,18.5 Z M14.5,8.5 C13.6715729,8.5 13,7.82842712 13,7 C13,6.17157288 13.6715729,5.5 14.5,5.5 C15.3284271,5.5 16,6.17157288 16,7 C16,7.82842712 15.3284271,8.5 14.5,8.5 Z M14.5,13.5 C13.6715729,13.5 13,12.8284271 13,12 C13,11.1715729 13.6715729,10.5 14.5,10.5 C15.3284271,10.5 16,11.1715729 16,12 C16,12.8284271 15.3284271,13.5 14.5,13.5 Z M14.5,18.5 C13.6715729,18.5 13,17.8284271 13,17 C13,16.1715729 13.6715729,15.5 14.5,15.5 C15.3284271,15.5 16,16.1715729 16,17 C16,17.8284271 15.3284271,18.5 14.5,18.5 Z"/>
</svg>
