<svg xmlns="http://www.w3.org/2000/svg" width="24" height="24" viewBox="0 0 24 24">
  <path fill="#2D77CC" fill-rule="evenodd" d="M9.04245277,17.7937103 L9.04177639,6.79371034 L14.0414414,6.79371034 L14.0414414,5.79371034 L9.04212931,5.79371034 L9.04248342,4.79193416 C9.04177631,4.37827669 9.20936062,4.00280299 9.48088962,3.73127399 C9.75241862,3.45974498 10.1278923,3.29216067 10.5422569,3.29216067 L12.5419549,3.29216067 C13.370684,3.29216067 14.0417284,3.96320501 14.0417284,4.79193416 L14.0417284,6.79163213 L14.0363166,17.7937103 L9.04245277,17.7937103 Z M9.2339578,18.7937103 L13.8492672,18.7937103 L11.9889974,22.5155656 C11.9656628,22.564356 11.9331359,22.6081966 11.8956593,22.6456733 C11.8037354,22.7375972 11.6771633,22.7920444 11.5421059,22.7913373 C11.3533084,22.7920444 11.1793601,22.6845641 11.0952144,22.5155656 L9.2339578,18.7937103 Z" transform="rotate(45 11.542 13.042)"/>
</svg>
