<svg xmlns="http://www.w3.org/2000/svg" width="24" height="24" viewBox="0 0 24 24">
  <path fill="#333D4F" fill-rule="evenodd" d="M18.4346927,8.268 L17.7276927,8.975 L15.6066927,6.854 L16.3136927,6.147 C16.4406927,6.019 16.5896927,6 16.6666927,6 C16.7446927,6 16.8926927,6.019 17.0206927,6.147 L18.4346927,7.561 C18.6296927,7.756 18.6296927,8.073 18.4346927,8.268 Z M17.0206927,9.682 L9.24169274,17.46 L7.12069274,15.339 L14.8986927,7.561 L17.0206927,9.682 Z M5.79069274,18.791 L6.63269274,16.265 L8.31669274,17.949 L5.79069274,18.791 Z M19.1416927,6.854 L17.7276927,5.44 C17.4346927,5.147 17.0506927,5 16.6666927,5 C16.2826927,5 15.8986927,5.147 15.6066927,5.44 L14.1916927,6.854 L6.06069274,14.986 L6.06369274,14.989 C6.01069274,15.043 5.96469274,15.106 5.93969274,15.181 L4.52569274,19.424 C4.46569274,19.603 4.51269274,19.802 4.64669274,19.935 C4.74169274,20.031 4.86969274,20.082 4.99969274,20.082 C5.05269274,20.082 5.10669274,20.074 5.15769274,20.056 L9.40069274,18.641 C9.47469274,18.617 9.53769274,18.571 9.59169274,18.517 L9.59569274,18.521 L17.7276927,10.389 L19.1416927,8.975 C19.7276927,8.389 19.7276927,7.44 19.1416927,6.854 Z"/>
</svg>
