<svg xmlns="http://www.w3.org/2000/svg" width="24" height="24" viewBox="0 0 24 24">
  <path fill="#2D77CC" fill-rule="evenodd" d="M13.0163622,5.8660493 C13.761007,5.29143754 14.6067841,5 15.5304124,5 C16.7659142,5 17.9025102,5.49377166 18.7307484,6.39010677 C19.549221,7.27595683 20,8.48625868 20,9.79809788 C20,11.1483303 19.4958228,12.3843575 18.4130937,13.6878165 C17.4446219,14.8539564 16.0528708,16.0374415 14.4410818,17.4080593 C13.8903814,17.8762615 13.2661657,18.4071791 12.6184345,18.9723582 C12.4473806,19.1217214 12.2276551,19.2040816 12,19.2040816 C11.7721886,19.2040816 11.5526194,19.1217214 11.3814093,18.9722023 C10.7350452,18.4082705 10.1118842,17.8782494 9.56212128,17.4108268 C7.94744166,16.0375974 6.55537815,14.8539564 5.58690631,13.6878165 C4.50429441,12.3843575 4,11.1483303 4,9.79809788 C4,8.48625868 4.45073999,7.27595683 5.26921255,6.39010677 C6.0974507,5.49377166 7.23392952,5 8.4697438,5 C9.39333304,5 10.2391492,5.29143754 10.9835987,5.8660493 C11.1029936,5.95819232 11.2188451,6.05691451 11.3309816,6.1620169 C11.5111084,6.3206723 11.7341146,6.57500003 12,6.92500008 C12.2666667,6.57500003 12.4892878,6.32099976 12.6678634,6.16299929 C12.7803262,6.05752963 12.8965456,5.95847936 13.0163622,5.8660493 Z"/>
</svg>
