<svg xmlns="http://www.w3.org/2000/svg" width="24" height="24" viewBox="0 0 24 24">
  <path fill="#333D4F" fill-rule="evenodd" d="M12,20 C7.581722,20 4,16.418278 4,12 C4,7.581722 7.581722,4 12,4 C16.418278,4 20,7.581722 20,12 C20,16.418278 16.418278,20 12,20 Z M12,19 C15.8659932,19 19,15.8659932 19,12 C19,8.13400675 15.8659932,5 12,5 C8.13400675,5 5,8.13400675 5,12 C5,15.8659932 8.13400675,19 12,19 Z M12.127069,16.75 C11.6339305,16.75 11.2403448,16.350144 11.2403448,15.8568966 C11.2403448,15.3602103 11.6373447,14.9637931 12.127069,14.9637931 C12.6202075,14.9637931 13.0137931,15.3636491 13.0137931,15.8568966 C13.0137931,16.3535828 12.6167932,16.75 12.127069,16.75 Z M15.1444828,10.0006897 C15.1444828,10.8937931 14.7234483,11.5317241 14.1365517,12.0293103 C13.4731034,12.5906897 12.9244828,12.8586207 12.9244828,13.8155172 L12.9244828,14.1727586 L11.3424138,14.1727586 C11.3424138,13.8027586 11.3296552,13.3051724 11.4062069,12.9351724 C11.6486207,11.8124138 12.3886207,11.4806897 12.9882759,10.932069 C13.2306897,10.7151724 13.4858621,10.4217241 13.4858621,10.0134483 C13.4858621,9.45206897 13.052069,8.94172414 12.2482759,8.94172414 C11.4444828,8.94172414 10.8958621,9.38827586 10.8958621,10.2175862 L9.25,10.2175862 C9.25,8.43137931 10.6151724,7.5 12.312069,7.5 C13.9834483,7.5 15.1444828,8.59724138 15.1444828,10.0006897 Z"/>
</svg>
