<svg xmlns="http://www.w3.org/2000/svg" width="24" height="24" viewBox="0 0 24 24">
  <path fill="#E5712A" fill-rule="evenodd" d="M12,20 C7.581722,20 4,16.418278 4,12 C4,7.581722 7.581722,4 12,4 C16.418278,4 20,7.581722 20,12 C20,16.418278 16.418278,20 12,20 Z M12,14.17 C11.6695651,14.17 11.3869565,14.2841304 11.1521739,14.5123913 C10.9173913,14.7406522 10.8,15.0154105 10.8,15.3366667 C10.8,15.6579228 10.9173913,15.9326812 11.1521739,16.160942 C11.3869565,16.3892029 11.6695651,16.5033333 12,16.5033333 C12.3304349,16.5033333 12.6130435,16.3892029 12.8478261,16.160942 C13.0826087,15.9326812 13.2,15.6579228 13.2,15.3366667 C13.2,15.0154105 13.0826087,14.7406522 12.8478261,14.5123913 C12.6130435,14.2841304 12.3304349,14.17 12,14.17 Z M10.8,7.9265625 L11.0181818,12.3890625 C11.0181818,12.4765627 11.0500001,12.5585939 11.1136364,12.6351563 C11.1772726,12.7117186 11.2545456,12.75 11.3454545,12.75 L12.6545455,12.75 C12.7454544,12.75 12.8227274,12.7117186 12.8863636,12.6351563 C12.9499999,12.5585939 12.9818182,12.4765627 12.9818182,12.3890625 L13.2,7.9265625 C13.2,7.7953125 13.1681817,7.69140608 13.1045455,7.61484375 C13.0409092,7.53828142 12.9636362,7.5 12.8727273,7.5 L11.1272727,7.5 C11.0363638,7.5 10.9590908,7.53828142 10.8954545,7.61484375 C10.8318183,7.69140608 10.8,7.7953125 10.8,7.9265625 Z"/>
</svg>
